<svg width="1363" height="163" viewBox="0 0 1363 163" fill="none" xmlns="http://www.w3.org/2000/svg">
<path d="M0 15C0 6.71573 6.71573 0 15 0H37V163H15C6.71573 163 0 156.284 0 148V15Z" fill="#424242"/>
<rect width="1097" height="163" transform="translate(37)" fill="#F0F0F0"/>
<path d="M96.1289 43.9375H99.1055L103.488 56.4648L107.871 43.9375H110.848L104.684 61H102.293L96.1289 43.9375ZM94.5234 43.9375H97.4883L98.0273 56.1484V61H94.5234V43.9375ZM109.488 43.9375H112.465V61H108.949V56.1484L109.488 43.9375ZM121.172 61.2344C120.188 61.2344 119.305 61.0781 118.523 60.7656C117.742 60.4453 117.078 60.0039 116.531 59.4414C115.992 58.8789 115.578 58.2266 115.289 57.4844C115 56.7344 114.855 55.9375 114.855 55.0938V54.625C114.855 53.6641 114.992 52.7852 115.266 51.9883C115.539 51.1914 115.93 50.5 116.438 49.9141C116.953 49.3281 117.578 48.8789 118.312 48.5664C119.047 48.2461 119.875 48.0859 120.797 48.0859C121.695 48.0859 122.492 48.2344 123.188 48.5312C123.883 48.8281 124.465 49.25 124.934 49.7969C125.41 50.3438 125.77 51 126.012 51.7656C126.254 52.5234 126.375 53.3672 126.375 54.2969V55.7031H116.297V53.4531H123.059V53.1953C123.059 52.7266 122.973 52.3086 122.801 51.9414C122.637 51.5664 122.387 51.2695 122.051 51.0508C121.715 50.832 121.285 50.7227 120.762 50.7227C120.316 50.7227 119.934 50.8203 119.613 51.0156C119.293 51.2109 119.031 51.4844 118.828 51.8359C118.633 52.1875 118.484 52.6016 118.383 53.0781C118.289 53.5469 118.242 54.0625 118.242 54.625V55.0938C118.242 55.6016 118.312 56.0703 118.453 56.5C118.602 56.9297 118.809 57.3008 119.074 57.6133C119.348 57.9258 119.676 58.168 120.059 58.3398C120.449 58.5117 120.891 58.5977 121.383 58.5977C121.992 58.5977 122.559 58.4805 123.082 58.2461C123.613 58.0039 124.07 57.6406 124.453 57.1562L126.094 58.9375C125.828 59.3203 125.465 59.6875 125.004 60.0391C124.551 60.3906 124.004 60.6797 123.363 60.9062C122.723 61.125 121.992 61.2344 121.172 61.2344ZM135.785 58.2344V43H139.184V61H136.125L135.785 58.2344ZM127.77 54.8125V54.5664C127.77 53.5977 127.879 52.7188 128.098 51.9297C128.316 51.1328 128.637 50.4492 129.059 49.8789C129.48 49.3086 130 48.8672 130.617 48.5547C131.234 48.2422 131.938 48.0859 132.727 48.0859C133.469 48.0859 134.117 48.2422 134.672 48.5547C135.234 48.8672 135.711 49.3125 136.102 49.8906C136.5 50.4609 136.82 51.1367 137.062 51.918C137.305 52.6914 137.48 53.5391 137.59 54.4609V55C137.48 55.8828 137.305 56.7031 137.062 57.4609C136.82 58.2188 136.5 58.8828 136.102 59.4531C135.711 60.0156 135.234 60.4531 134.672 60.7656C134.109 61.0781 133.453 61.2344 132.703 61.2344C131.914 61.2344 131.211 61.0742 130.594 60.7539C129.984 60.4336 129.469 59.9844 129.047 59.4062C128.633 58.8281 128.316 58.1484 128.098 57.3672C127.879 56.5859 127.77 55.7344 127.77 54.8125ZM131.145 54.5664V54.8125C131.145 55.3359 131.184 55.8242 131.262 56.2773C131.348 56.7305 131.484 57.1328 131.672 57.4844C131.867 57.8281 132.117 58.0977 132.422 58.293C132.734 58.4805 133.113 58.5742 133.559 58.5742C134.137 58.5742 134.613 58.4453 134.988 58.1875C135.363 57.9219 135.648 57.5586 135.844 57.0977C136.047 56.6367 136.164 56.1055 136.195 55.5039V53.9688C136.172 53.4766 136.102 53.0352 135.984 52.6445C135.875 52.2461 135.711 51.9062 135.492 51.625C135.281 51.3438 135.016 51.125 134.695 50.9688C134.383 50.8125 134.012 50.7344 133.582 50.7344C133.145 50.7344 132.77 50.8359 132.457 51.0391C132.145 51.2344 131.891 51.5039 131.695 51.8477C131.508 52.1914 131.367 52.5977 131.273 53.0664C131.188 53.5273 131.145 54.0273 131.145 54.5664ZM145.383 48.3203V61H141.996V48.3203H145.383ZM141.785 45.0156C141.785 44.5234 141.957 44.1172 142.301 43.7969C142.645 43.4766 143.105 43.3164 143.684 43.3164C144.254 43.3164 144.711 43.4766 145.055 43.7969C145.406 44.1172 145.582 44.5234 145.582 45.0156C145.582 45.5078 145.406 45.9141 145.055 46.2344C144.711 46.5547 144.254 46.7148 143.684 46.7148C143.105 46.7148 142.645 46.5547 142.301 46.2344C141.957 45.9141 141.785 45.5078 141.785 45.0156ZM153.41 58.5977C153.824 58.5977 154.191 58.5195 154.512 58.3633C154.832 58.1992 155.082 57.9727 155.262 57.6836C155.449 57.3867 155.547 57.0391 155.555 56.6406H158.73C158.723 57.5312 158.484 58.3242 158.016 59.0195C157.547 59.707 156.918 60.25 156.129 60.6484C155.34 61.0391 154.457 61.2344 153.48 61.2344C152.496 61.2344 151.637 61.0703 150.902 60.7422C150.176 60.4141 149.57 59.9609 149.086 59.3828C148.602 58.7969 148.238 58.1172 147.996 57.3438C147.754 56.5625 147.633 55.7266 147.633 54.8359V54.4961C147.633 53.5977 147.754 52.7617 147.996 51.9883C148.238 51.207 148.602 50.5273 149.086 49.9492C149.57 49.3633 150.176 48.9062 150.902 48.5781C151.629 48.25 152.48 48.0859 153.457 48.0859C154.496 48.0859 155.406 48.2852 156.188 48.6836C156.977 49.082 157.594 49.6523 158.039 50.3945C158.492 51.1289 158.723 52 158.73 53.0078H155.555C155.547 52.5859 155.457 52.2031 155.285 51.8594C155.121 51.5156 154.879 51.2422 154.559 51.0391C154.246 50.8281 153.859 50.7227 153.398 50.7227C152.906 50.7227 152.504 50.8281 152.191 51.0391C151.879 51.2422 151.637 51.5234 151.465 51.8828C151.293 52.2344 151.172 52.6367 151.102 53.0898C151.039 53.5352 151.008 54.0039 151.008 54.4961V54.8359C151.008 55.3281 151.039 55.8008 151.102 56.2539C151.164 56.707 151.281 57.1094 151.453 57.4609C151.633 57.8125 151.879 58.0898 152.191 58.293C152.504 58.4961 152.91 58.5977 153.41 58.5977ZM167.531 58.1406V52.4922C167.531 52.0859 167.465 51.7383 167.332 51.4492C167.199 51.1523 166.992 50.9219 166.711 50.7578C166.438 50.5938 166.082 50.5117 165.645 50.5117C165.27 50.5117 164.945 50.5781 164.672 50.7109C164.398 50.8359 164.188 51.0195 164.039 51.2617C163.891 51.4961 163.816 51.7734 163.816 52.0938H160.441C160.441 51.5547 160.566 51.043 160.816 50.5586C161.066 50.0742 161.43 49.6484 161.906 49.2812C162.383 48.9062 162.949 48.6133 163.605 48.4023C164.27 48.1914 165.012 48.0859 165.832 48.0859C166.816 48.0859 167.691 48.25 168.457 48.5781C169.223 48.9062 169.824 49.3984 170.262 50.0547C170.707 50.7109 170.93 51.5312 170.93 52.5156V57.9414C170.93 58.6367 170.973 59.207 171.059 59.6523C171.145 60.0898 171.27 60.4727 171.434 60.8008V61H168.023C167.859 60.6562 167.734 60.2266 167.648 59.7109C167.57 59.1875 167.531 58.6641 167.531 58.1406ZM167.977 53.2773L168 55.1875H166.113C165.668 55.1875 165.281 55.2383 164.953 55.3398C164.625 55.4414 164.355 55.5859 164.145 55.7734C163.934 55.9531 163.777 56.1641 163.676 56.4062C163.582 56.6484 163.535 56.9141 163.535 57.2031C163.535 57.4922 163.602 57.7539 163.734 57.9883C163.867 58.2148 164.059 58.3945 164.309 58.5273C164.559 58.6523 164.852 58.7148 165.188 58.7148C165.695 58.7148 166.137 58.6133 166.512 58.4102C166.887 58.207 167.176 57.957 167.379 57.6602C167.59 57.3633 167.699 57.082 167.707 56.8164L168.598 58.2461C168.473 58.5664 168.301 58.8984 168.082 59.2422C167.871 59.5859 167.602 59.9102 167.273 60.2148C166.945 60.5117 166.551 60.7578 166.09 60.9531C165.629 61.1406 165.082 61.2344 164.449 61.2344C163.645 61.2344 162.914 61.0742 162.258 60.7539C161.609 60.4258 161.094 59.9766 160.711 59.4062C160.336 58.8281 160.148 58.1719 160.148 57.4375C160.148 56.7734 160.273 56.1836 160.523 55.668C160.773 55.1523 161.141 54.7188 161.625 54.3672C162.117 54.0078 162.73 53.7383 163.465 53.5586C164.199 53.3711 165.051 53.2773 166.02 53.2773H167.977ZM176.906 51.0859V61H173.531V48.3203H176.707L176.906 51.0859ZM180.727 48.2383L180.668 51.3672C180.504 51.3438 180.305 51.3242 180.07 51.3086C179.844 51.2852 179.637 51.2734 179.449 51.2734C178.973 51.2734 178.559 51.3359 178.207 51.4609C177.863 51.5781 177.574 51.7539 177.34 51.9883C177.113 52.2227 176.941 52.5078 176.824 52.8438C176.715 53.1797 176.652 53.5625 176.637 53.9922L175.957 53.7812C175.957 52.9609 176.039 52.207 176.203 51.5195C176.367 50.8242 176.605 50.2188 176.918 49.7031C177.238 49.1875 177.629 48.7891 178.09 48.5078C178.551 48.2266 179.078 48.0859 179.672 48.0859C179.859 48.0859 180.051 48.1016 180.246 48.1328C180.441 48.1562 180.602 48.1914 180.727 48.2383ZM187.922 61.2344C186.938 61.2344 186.055 61.0781 185.273 60.7656C184.492 60.4453 183.828 60.0039 183.281 59.4414C182.742 58.8789 182.328 58.2266 182.039 57.4844C181.75 56.7344 181.605 55.9375 181.605 55.0938V54.625C181.605 53.6641 181.742 52.7852 182.016 51.9883C182.289 51.1914 182.68 50.5 183.188 49.9141C183.703 49.3281 184.328 48.8789 185.062 48.5664C185.797 48.2461 186.625 48.0859 187.547 48.0859C188.445 48.0859 189.242 48.2344 189.938 48.5312C190.633 48.8281 191.215 49.25 191.684 49.7969C192.16 50.3438 192.52 51 192.762 51.7656C193.004 52.5234 193.125 53.3672 193.125 54.2969V55.7031H183.047V53.4531H189.809V53.1953C189.809 52.7266 189.723 52.3086 189.551 51.9414C189.387 51.5664 189.137 51.2695 188.801 51.0508C188.465 50.832 188.035 50.7227 187.512 50.7227C187.066 50.7227 186.684 50.8203 186.363 51.0156C186.043 51.2109 185.781 51.4844 185.578 51.8359C185.383 52.1875 185.234 52.6016 185.133 53.0781C185.039 53.5469 184.992 54.0625 184.992 54.625V55.0938C184.992 55.6016 185.062 56.0703 185.203 56.5C185.352 56.9297 185.559 57.3008 185.824 57.6133C186.098 57.9258 186.426 58.168 186.809 58.3398C187.199 58.5117 187.641 58.5977 188.133 58.5977C188.742 58.5977 189.309 58.4805 189.832 58.2461C190.363 58.0039 190.82 57.6406 191.203 57.1562L192.844 58.9375C192.578 59.3203 192.215 59.6875 191.754 60.0391C191.301 60.3906 190.754 60.6797 190.113 60.9062C189.473 61.125 188.742 61.2344 187.922 61.2344Z" fill="#888888"/>
<path d="M118.594 98.4219V104.75H101.086V98.4219H118.594ZM103.828 84.875V119H95.6016V84.875H103.828ZM124.125 84.875V119H115.922V84.875H124.125ZM127.992 106.578V106.086C127.992 104.227 128.258 102.516 128.789 100.953C129.32 99.375 130.102 98.0078 131.133 96.8516C132.164 95.6953 133.438 94.7969 134.953 94.1562C136.469 93.5 138.219 93.1719 140.203 93.1719C142.203 93.1719 143.961 93.5 145.477 94.1562C147.008 94.7969 148.289 95.6953 149.32 96.8516C150.352 98.0078 151.133 99.375 151.664 100.953C152.195 102.516 152.461 104.227 152.461 106.086V106.578C152.461 108.422 152.195 110.133 151.664 111.711C151.133 113.273 150.352 114.641 149.32 115.812C148.289 116.969 147.016 117.867 145.5 118.508C143.984 119.148 142.234 119.469 140.25 119.469C138.266 119.469 136.508 119.148 134.977 118.508C133.445 117.867 132.164 116.969 131.133 115.812C130.102 114.641 129.32 113.273 128.789 111.711C128.258 110.133 127.992 108.422 127.992 106.578ZM135.891 106.086V106.578C135.891 107.531 135.961 108.422 136.102 109.25C136.242 110.078 136.477 110.805 136.805 111.43C137.133 112.039 137.578 112.516 138.141 112.859C138.703 113.203 139.406 113.375 140.25 113.375C141.078 113.375 141.766 113.203 142.312 112.859C142.875 112.516 143.32 112.039 143.648 111.43C143.977 110.805 144.211 110.078 144.352 109.25C144.492 108.422 144.562 107.531 144.562 106.578V106.086C144.562 105.164 144.492 104.297 144.352 103.484C144.211 102.656 143.977 101.93 143.648 101.305C143.32 100.664 142.875 100.164 142.312 99.8047C141.75 99.4453 141.047 99.2656 140.203 99.2656C139.375 99.2656 138.68 99.4453 138.117 99.8047C137.57 100.164 137.133 100.664 136.805 101.305C136.477 101.93 136.242 102.656 136.102 103.484C135.961 104.297 135.891 105.164 135.891 106.086ZM163.688 111.453L168.375 93.6406H173.32L171.562 102.57L166.922 119H162.961L163.688 111.453ZM161.836 93.6406L164.742 111.312L165.07 119H160.266L154.266 93.6406H161.836ZM177.492 110.938L180.422 93.6406H187.992L182.039 119H177.234L177.492 110.938ZM173.883 93.6406L178.617 111.406L179.344 119H175.336L170.789 102.617L169.102 93.6406H173.883ZM218.297 84.875V119H210.07V84.875H218.297ZM228.562 84.875V91.2266H200.039V84.875H228.562ZM225.773 106.578V106.086C225.773 104.227 226.039 102.516 226.57 100.953C227.102 99.375 227.883 98.0078 228.914 96.8516C229.945 95.6953 231.219 94.7969 232.734 94.1562C234.25 93.5 236 93.1719 237.984 93.1719C239.984 93.1719 241.742 93.5 243.258 94.1562C244.789 94.7969 246.07 95.6953 247.102 96.8516C248.133 98.0078 248.914 99.375 249.445 100.953C249.977 102.516 250.242 104.227 250.242 106.086V106.578C250.242 108.422 249.977 110.133 249.445 111.711C248.914 113.273 248.133 114.641 247.102 115.812C246.07 116.969 244.797 117.867 243.281 118.508C241.766 119.148 240.016 119.469 238.031 119.469C236.047 119.469 234.289 119.148 232.758 118.508C231.227 117.867 229.945 116.969 228.914 115.812C227.883 114.641 227.102 113.273 226.57 111.711C226.039 110.133 225.773 108.422 225.773 106.578ZM233.672 106.086V106.578C233.672 107.531 233.742 108.422 233.883 109.25C234.023 110.078 234.258 110.805 234.586 111.43C234.914 112.039 235.359 112.516 235.922 112.859C236.484 113.203 237.188 113.375 238.031 113.375C238.859 113.375 239.547 113.203 240.094 112.859C240.656 112.516 241.102 112.039 241.43 111.43C241.758 110.805 241.992 110.078 242.133 109.25C242.273 108.422 242.344 107.531 242.344 106.578V106.086C242.344 105.164 242.273 104.297 242.133 103.484C241.992 102.656 241.758 101.93 241.43 101.305C241.102 100.664 240.656 100.164 240.094 99.8047C239.531 99.4453 238.828 99.2656 237.984 99.2656C237.156 99.2656 236.461 99.4453 235.898 99.8047C235.352 100.164 234.914 100.664 234.586 101.305C234.258 101.93 234.023 102.656 233.883 103.484C233.742 104.297 233.672 105.164 233.672 106.086ZM266.086 84.875H279.516C282.141 84.875 284.422 85.2656 286.359 86.0469C288.297 86.8281 289.789 87.9844 290.836 89.5156C291.898 91.0469 292.43 92.9375 292.43 95.1875C292.43 97.1406 292.125 98.7734 291.516 100.086C290.906 101.398 290.055 102.484 288.961 103.344C287.883 104.188 286.625 104.883 285.188 105.43L282.492 106.953H271.219L271.172 100.602H279.516C280.562 100.602 281.43 100.414 282.117 100.039C282.805 99.6641 283.32 99.1328 283.664 98.4453C284.023 97.7422 284.203 96.9062 284.203 95.9375C284.203 94.9531 284.023 94.1094 283.664 93.4062C283.305 92.7031 282.773 92.1641 282.07 91.7891C281.383 91.4141 280.531 91.2266 279.516 91.2266H274.312V119H266.086V84.875ZM284.766 119L277.219 103.906L285.938 103.859L293.578 118.648V119H284.766ZM311.836 112.836V93.6406H319.758V119H312.352L311.836 112.836ZM312.586 107.68L314.648 107.633C314.648 109.336 314.445 110.914 314.039 112.367C313.633 113.805 313.031 115.055 312.234 116.117C311.453 117.18 310.484 118.008 309.328 118.602C308.188 119.18 306.867 119.469 305.367 119.469C304.117 119.469 302.969 119.297 301.922 118.953C300.891 118.594 300 118.039 299.25 117.289C298.5 116.523 297.914 115.547 297.492 114.359C297.086 113.156 296.883 111.719 296.883 110.047V93.6406H304.781V110.094C304.781 110.656 304.852 111.141 304.992 111.547C305.133 111.953 305.336 112.297 305.602 112.578C305.867 112.844 306.195 113.047 306.586 113.188C306.992 113.312 307.453 113.375 307.969 113.375C309.156 113.375 310.086 113.125 310.758 112.625C311.43 112.125 311.898 111.445 312.164 110.586C312.445 109.727 312.586 108.758 312.586 107.68ZM331.875 99.0547V119H323.977V93.6406H331.383L331.875 99.0547ZM330.938 105.453L329.086 105.5C329.086 103.562 329.32 101.836 329.789 100.32C330.258 98.7891 330.922 97.4922 331.781 96.4297C332.641 95.3672 333.664 94.5625 334.852 94.0156C336.055 93.4531 337.391 93.1719 338.859 93.1719C340.031 93.1719 341.102 93.3438 342.07 93.6875C343.055 94.0312 343.898 94.5859 344.602 95.3516C345.32 96.1172 345.867 97.1328 346.242 98.3984C346.633 99.6484 346.828 101.195 346.828 103.039V119H338.883V103.016C338.883 102 338.742 101.227 338.461 100.695C338.18 100.148 337.773 99.7734 337.242 99.5703C336.711 99.3672 336.062 99.2656 335.297 99.2656C334.484 99.2656 333.797 99.4219 333.234 99.7344C332.672 100.047 332.219 100.484 331.875 101.047C331.547 101.594 331.305 102.242 331.148 102.992C331.008 103.742 330.938 104.562 330.938 105.453ZM363.773 108.195H357.047C357.047 106.82 357.141 105.609 357.328 104.562C357.531 103.5 357.875 102.547 358.359 101.703C358.844 100.859 359.5 100.078 360.328 99.3594C361.062 98.75 361.695 98.1641 362.227 97.6016C362.758 97.0391 363.164 96.4688 363.445 95.8906C363.727 95.3125 363.867 94.6953 363.867 94.0391C363.867 93.2266 363.75 92.5625 363.516 92.0469C363.297 91.5312 362.961 91.1484 362.508 90.8984C362.07 90.6328 361.516 90.5 360.844 90.5C360.297 90.5 359.781 90.6328 359.297 90.8984C358.828 91.1641 358.445 91.5781 358.148 92.1406C357.852 92.6875 357.688 93.4141 357.656 94.3203H349.711C349.758 91.9922 350.273 90.1016 351.258 88.6484C352.258 87.1797 353.586 86.1094 355.242 85.4375C356.914 84.75 358.781 84.4062 360.844 84.4062C363.125 84.4062 365.086 84.7578 366.727 85.4609C368.367 86.1641 369.625 87.2109 370.5 88.6016C371.375 89.9766 371.812 91.6719 371.812 93.6875C371.812 95.0312 371.555 96.2031 371.039 97.2031C370.539 98.1875 369.859 99.1094 369 99.9688C368.156 100.812 367.211 101.719 366.164 102.688C365.258 103.484 364.641 104.297 364.312 105.125C363.984 105.938 363.805 106.961 363.773 108.195ZM356.086 115.32C356.086 114.195 356.492 113.258 357.305 112.508C358.117 111.742 359.172 111.359 360.469 111.359C361.766 111.359 362.82 111.742 363.633 112.508C364.445 113.258 364.852 114.195 364.852 115.32C364.852 116.445 364.445 117.391 363.633 118.156C362.82 118.906 361.766 119.281 360.469 119.281C359.172 119.281 358.117 118.906 357.305 118.156C356.492 117.391 356.086 116.445 356.086 115.32Z" fill="black"/>
<path d="M1134 0H1348C1356.28 0 1363 6.71573 1363 15V148C1363 156.284 1356.28 163 1348 163H1134V0Z" fill="#8ABCD7"/>
<path d="M1260.62 78.8847C1263.81 78.8847 1266.93 79.805 1269.59 81.5293C1272.25 83.2536 1274.32 85.7044 1275.54 88.5718C1276.76 91.4391 1277.08 94.5943 1276.46 97.6383C1275.84 100.682 1274.3 103.478 1272.04 105.673C1269.78 107.868 1266.9 109.362 1263.77 109.968C1260.63 110.573 1257.39 110.262 1254.43 109.075C1251.48 107.887 1248.96 105.876 1247.18 103.295C1245.41 100.714 1244.46 97.6806 1244.46 94.5769C1244.46 90.4151 1246.16 86.4237 1249.19 83.4808C1252.22 80.538 1256.33 78.8847 1260.62 78.8847ZM1260.62 73.6539C1256.36 73.6539 1252.19 74.881 1248.65 77.1801C1245.11 79.4791 1242.35 82.7469 1240.72 86.57C1239.09 90.3932 1238.66 94.6001 1239.49 98.6588C1240.32 102.717 1242.37 106.446 1245.39 109.372C1248.4 112.298 1252.24 114.291 1256.41 115.098C1260.59 115.905 1264.92 115.491 1268.86 113.907C1272.79 112.324 1276.16 109.642 1278.52 106.201C1280.89 102.76 1282.15 98.7151 1282.15 94.5769C1282.15 89.0278 1279.88 83.706 1275.85 79.7821C1271.81 75.8583 1266.33 73.6539 1260.62 73.6539Z" fill="white"/>
<path d="M1274.08 47.5H1220.23C1218.8 47.5 1217.43 48.0511 1216.42 49.0321C1215.41 50.013 1214.85 51.3435 1214.85 52.7307V105.038C1214.85 106.426 1215.41 107.756 1216.42 108.737C1217.43 109.718 1218.8 110.269 1220.23 110.269H1231V105.038H1220.23V68.423H1279.46V52.7307C1279.46 51.3435 1278.89 50.013 1277.88 49.0321C1276.87 48.0511 1275.5 47.5 1274.08 47.5ZM1220.23 63.1922V52.7307H1274.08V63.1922H1220.23Z" fill="white"/>
<path d="M1255.23 86.731V102.423L1268.69 94.5771L1255.23 86.731Z" fill="white"/>
</svg>
