<svg width="1363" height="163" viewBox="0 0 1363 163" fill="none" xmlns="http://www.w3.org/2000/svg">
<path d="M0 15C0 6.71573 6.71573 0 15 0H37V163H15C6.71573 163 0 156.284 0 148V15Z" fill="#424242"/>
<rect width="1097" height="163" transform="translate(37)" fill="#F0F0F0"/>
<path d="M96.1289 43.9375H99.1055L103.488 56.4648L107.871 43.9375H110.848L104.684 61H102.293L96.1289 43.9375ZM94.5234 43.9375H97.4883L98.0273 56.1484V61H94.5234V43.9375ZM109.488 43.9375H112.465V61H108.949V56.1484L109.488 43.9375ZM121.172 61.2344C120.188 61.2344 119.305 61.0781 118.523 60.7656C117.742 60.4453 117.078 60.0039 116.531 59.4414C115.992 58.8789 115.578 58.2266 115.289 57.4844C115 56.7344 114.855 55.9375 114.855 55.0938V54.625C114.855 53.6641 114.992 52.7852 115.266 51.9883C115.539 51.1914 115.93 50.5 116.438 49.9141C116.953 49.3281 117.578 48.8789 118.312 48.5664C119.047 48.2461 119.875 48.0859 120.797 48.0859C121.695 48.0859 122.492 48.2344 123.188 48.5312C123.883 48.8281 124.465 49.25 124.934 49.7969C125.41 50.3438 125.77 51 126.012 51.7656C126.254 52.5234 126.375 53.3672 126.375 54.2969V55.7031H116.297V53.4531H123.059V53.1953C123.059 52.7266 122.973 52.3086 122.801 51.9414C122.637 51.5664 122.387 51.2695 122.051 51.0508C121.715 50.832 121.285 50.7227 120.762 50.7227C120.316 50.7227 119.934 50.8203 119.613 51.0156C119.293 51.2109 119.031 51.4844 118.828 51.8359C118.633 52.1875 118.484 52.6016 118.383 53.0781C118.289 53.5469 118.242 54.0625 118.242 54.625V55.0938C118.242 55.6016 118.312 56.0703 118.453 56.5C118.602 56.9297 118.809 57.3008 119.074 57.6133C119.348 57.9258 119.676 58.168 120.059 58.3398C120.449 58.5117 120.891 58.5977 121.383 58.5977C121.992 58.5977 122.559 58.4805 123.082 58.2461C123.613 58.0039 124.07 57.6406 124.453 57.1562L126.094 58.9375C125.828 59.3203 125.465 59.6875 125.004 60.0391C124.551 60.3906 124.004 60.6797 123.363 60.9062C122.723 61.125 121.992 61.2344 121.172 61.2344ZM135.785 58.2344V43H139.184V61H136.125L135.785 58.2344ZM127.77 54.8125V54.5664C127.77 53.5977 127.879 52.7188 128.098 51.9297C128.316 51.1328 128.637 50.4492 129.059 49.8789C129.48 49.3086 130 48.8672 130.617 48.5547C131.234 48.2422 131.938 48.0859 132.727 48.0859C133.469 48.0859 134.117 48.2422 134.672 48.5547C135.234 48.8672 135.711 49.3125 136.102 49.8906C136.5 50.4609 136.82 51.1367 137.062 51.918C137.305 52.6914 137.48 53.5391 137.59 54.4609V55C137.48 55.8828 137.305 56.7031 137.062 57.4609C136.82 58.2188 136.5 58.8828 136.102 59.4531C135.711 60.0156 135.234 60.4531 134.672 60.7656C134.109 61.0781 133.453 61.2344 132.703 61.2344C131.914 61.2344 131.211 61.0742 130.594 60.7539C129.984 60.4336 129.469 59.9844 129.047 59.4062C128.633 58.8281 128.316 58.1484 128.098 57.3672C127.879 56.5859 127.77 55.7344 127.77 54.8125ZM131.145 54.5664V54.8125C131.145 55.3359 131.184 55.8242 131.262 56.2773C131.348 56.7305 131.484 57.1328 131.672 57.4844C131.867 57.8281 132.117 58.0977 132.422 58.293C132.734 58.4805 133.113 58.5742 133.559 58.5742C134.137 58.5742 134.613 58.4453 134.988 58.1875C135.363 57.9219 135.648 57.5586 135.844 57.0977C136.047 56.6367 136.164 56.1055 136.195 55.5039V53.9688C136.172 53.4766 136.102 53.0352 135.984 52.6445C135.875 52.2461 135.711 51.9062 135.492 51.625C135.281 51.3438 135.016 51.125 134.695 50.9688C134.383 50.8125 134.012 50.7344 133.582 50.7344C133.145 50.7344 132.77 50.8359 132.457 51.0391C132.145 51.2344 131.891 51.5039 131.695 51.8477C131.508 52.1914 131.367 52.5977 131.273 53.0664C131.188 53.5273 131.145 54.0273 131.145 54.5664ZM145.383 48.3203V61H141.996V48.3203H145.383ZM141.785 45.0156C141.785 44.5234 141.957 44.1172 142.301 43.7969C142.645 43.4766 143.105 43.3164 143.684 43.3164C144.254 43.3164 144.711 43.4766 145.055 43.7969C145.406 44.1172 145.582 44.5234 145.582 45.0156C145.582 45.5078 145.406 45.9141 145.055 46.2344C144.711 46.5547 144.254 46.7148 143.684 46.7148C143.105 46.7148 142.645 46.5547 142.301 46.2344C141.957 45.9141 141.785 45.5078 141.785 45.0156ZM153.41 58.5977C153.824 58.5977 154.191 58.5195 154.512 58.3633C154.832 58.1992 155.082 57.9727 155.262 57.6836C155.449 57.3867 155.547 57.0391 155.555 56.6406H158.73C158.723 57.5312 158.484 58.3242 158.016 59.0195C157.547 59.707 156.918 60.25 156.129 60.6484C155.34 61.0391 154.457 61.2344 153.48 61.2344C152.496 61.2344 151.637 61.0703 150.902 60.7422C150.176 60.4141 149.57 59.9609 149.086 59.3828C148.602 58.7969 148.238 58.1172 147.996 57.3438C147.754 56.5625 147.633 55.7266 147.633 54.8359V54.4961C147.633 53.5977 147.754 52.7617 147.996 51.9883C148.238 51.207 148.602 50.5273 149.086 49.9492C149.57 49.3633 150.176 48.9062 150.902 48.5781C151.629 48.25 152.48 48.0859 153.457 48.0859C154.496 48.0859 155.406 48.2852 156.188 48.6836C156.977 49.082 157.594 49.6523 158.039 50.3945C158.492 51.1289 158.723 52 158.73 53.0078H155.555C155.547 52.5859 155.457 52.2031 155.285 51.8594C155.121 51.5156 154.879 51.2422 154.559 51.0391C154.246 50.8281 153.859 50.7227 153.398 50.7227C152.906 50.7227 152.504 50.8281 152.191 51.0391C151.879 51.2422 151.637 51.5234 151.465 51.8828C151.293 52.2344 151.172 52.6367 151.102 53.0898C151.039 53.5352 151.008 54.0039 151.008 54.4961V54.8359C151.008 55.3281 151.039 55.8008 151.102 56.2539C151.164 56.707 151.281 57.1094 151.453 57.4609C151.633 57.8125 151.879 58.0898 152.191 58.293C152.504 58.4961 152.91 58.5977 153.41 58.5977ZM167.531 58.1406V52.4922C167.531 52.0859 167.465 51.7383 167.332 51.4492C167.199 51.1523 166.992 50.9219 166.711 50.7578C166.438 50.5938 166.082 50.5117 165.645 50.5117C165.27 50.5117 164.945 50.5781 164.672 50.7109C164.398 50.8359 164.188 51.0195 164.039 51.2617C163.891 51.4961 163.816 51.7734 163.816 52.0938H160.441C160.441 51.5547 160.566 51.043 160.816 50.5586C161.066 50.0742 161.43 49.6484 161.906 49.2812C162.383 48.9062 162.949 48.6133 163.605 48.4023C164.27 48.1914 165.012 48.0859 165.832 48.0859C166.816 48.0859 167.691 48.25 168.457 48.5781C169.223 48.9062 169.824 49.3984 170.262 50.0547C170.707 50.7109 170.93 51.5312 170.93 52.5156V57.9414C170.93 58.6367 170.973 59.207 171.059 59.6523C171.145 60.0898 171.27 60.4727 171.434 60.8008V61H168.023C167.859 60.6562 167.734 60.2266 167.648 59.7109C167.57 59.1875 167.531 58.6641 167.531 58.1406ZM167.977 53.2773L168 55.1875H166.113C165.668 55.1875 165.281 55.2383 164.953 55.3398C164.625 55.4414 164.355 55.5859 164.145 55.7734C163.934 55.9531 163.777 56.1641 163.676 56.4062C163.582 56.6484 163.535 56.9141 163.535 57.2031C163.535 57.4922 163.602 57.7539 163.734 57.9883C163.867 58.2148 164.059 58.3945 164.309 58.5273C164.559 58.6523 164.852 58.7148 165.188 58.7148C165.695 58.7148 166.137 58.6133 166.512 58.4102C166.887 58.207 167.176 57.957 167.379 57.6602C167.59 57.3633 167.699 57.082 167.707 56.8164L168.598 58.2461C168.473 58.5664 168.301 58.8984 168.082 59.2422C167.871 59.5859 167.602 59.9102 167.273 60.2148C166.945 60.5117 166.551 60.7578 166.09 60.9531C165.629 61.1406 165.082 61.2344 164.449 61.2344C163.645 61.2344 162.914 61.0742 162.258 60.7539C161.609 60.4258 161.094 59.9766 160.711 59.4062C160.336 58.8281 160.148 58.1719 160.148 57.4375C160.148 56.7734 160.273 56.1836 160.523 55.668C160.773 55.1523 161.141 54.7188 161.625 54.3672C162.117 54.0078 162.73 53.7383 163.465 53.5586C164.199 53.3711 165.051 53.2773 166.02 53.2773H167.977ZM176.906 51.0859V61H173.531V48.3203H176.707L176.906 51.0859ZM180.727 48.2383L180.668 51.3672C180.504 51.3438 180.305 51.3242 180.07 51.3086C179.844 51.2852 179.637 51.2734 179.449 51.2734C178.973 51.2734 178.559 51.3359 178.207 51.4609C177.863 51.5781 177.574 51.7539 177.34 51.9883C177.113 52.2227 176.941 52.5078 176.824 52.8438C176.715 53.1797 176.652 53.5625 176.637 53.9922L175.957 53.7812C175.957 52.9609 176.039 52.207 176.203 51.5195C176.367 50.8242 176.605 50.2188 176.918 49.7031C177.238 49.1875 177.629 48.7891 178.09 48.5078C178.551 48.2266 179.078 48.0859 179.672 48.0859C179.859 48.0859 180.051 48.1016 180.246 48.1328C180.441 48.1562 180.602 48.1914 180.727 48.2383ZM187.922 61.2344C186.938 61.2344 186.055 61.0781 185.273 60.7656C184.492 60.4453 183.828 60.0039 183.281 59.4414C182.742 58.8789 182.328 58.2266 182.039 57.4844C181.75 56.7344 181.605 55.9375 181.605 55.0938V54.625C181.605 53.6641 181.742 52.7852 182.016 51.9883C182.289 51.1914 182.68 50.5 183.188 49.9141C183.703 49.3281 184.328 48.8789 185.062 48.5664C185.797 48.2461 186.625 48.0859 187.547 48.0859C188.445 48.0859 189.242 48.2344 189.938 48.5312C190.633 48.8281 191.215 49.25 191.684 49.7969C192.16 50.3438 192.52 51 192.762 51.7656C193.004 52.5234 193.125 53.3672 193.125 54.2969V55.7031H183.047V53.4531H189.809V53.1953C189.809 52.7266 189.723 52.3086 189.551 51.9414C189.387 51.5664 189.137 51.2695 188.801 51.0508C188.465 50.832 188.035 50.7227 187.512 50.7227C187.066 50.7227 186.684 50.8203 186.363 51.0156C186.043 51.2109 185.781 51.4844 185.578 51.8359C185.383 52.1875 185.234 52.6016 185.133 53.0781C185.039 53.5469 184.992 54.0625 184.992 54.625V55.0938C184.992 55.6016 185.062 56.0703 185.203 56.5C185.352 56.9297 185.559 57.3008 185.824 57.6133C186.098 57.9258 186.426 58.168 186.809 58.3398C187.199 58.5117 187.641 58.5977 188.133 58.5977C188.742 58.5977 189.309 58.4805 189.832 58.2461C190.363 58.0039 190.82 57.6406 191.203 57.1562L192.844 58.9375C192.578 59.3203 192.215 59.6875 191.754 60.0391C191.301 60.3906 190.754 60.6797 190.113 60.9062C189.473 61.125 188.742 61.2344 187.922 61.2344Z" fill="#888888"/>
<path d="M114.117 84.875H122.344V107.164C122.344 109.82 121.789 112.07 120.68 113.914C119.57 115.742 118.016 117.125 116.016 118.062C114.016 119 111.664 119.469 108.961 119.469C106.289 119.469 103.938 119 101.906 118.062C99.8906 117.125 98.3125 115.742 97.1719 113.914C96.0469 112.07 95.4844 109.82 95.4844 107.164V84.875H103.734V107.164C103.734 108.57 103.938 109.719 104.344 110.609C104.75 111.484 105.344 112.125 106.125 112.531C106.906 112.938 107.852 113.141 108.961 113.141C110.086 113.141 111.031 112.938 111.797 112.531C112.562 112.125 113.141 111.484 113.531 110.609C113.922 109.719 114.117 108.57 114.117 107.164V84.875ZM136.266 84.875V119H128.062V84.875H136.266ZM172.523 84.875H180.75V107.164C180.75 109.82 180.195 112.07 179.086 113.914C177.977 115.742 176.422 117.125 174.422 118.062C172.422 119 170.07 119.469 167.367 119.469C164.695 119.469 162.344 119 160.312 118.062C158.297 117.125 156.719 115.742 155.578 113.914C154.453 112.07 153.891 109.82 153.891 107.164V84.875H162.141V107.164C162.141 108.57 162.344 109.719 162.75 110.609C163.156 111.484 163.75 112.125 164.531 112.531C165.312 112.938 166.258 113.141 167.367 113.141C168.492 113.141 169.438 112.938 170.203 112.531C170.969 112.125 171.547 111.484 171.938 110.609C172.328 109.719 172.523 108.57 172.523 107.164V84.875ZM193.078 84.875L198.656 96.2188L204.234 84.875H213.609L204.094 101.797L213.867 119H204.398L198.656 107.445L192.914 119H183.422L193.219 101.797L183.68 84.875H193.078Z" fill="black"/>
<path d="M1134 0H1348C1356.28 0 1363 6.71573 1363 15V148C1363 156.284 1356.28 163 1348 163H1134V0Z" fill="#8ABCD7"/>
<path d="M1248.5 111.917C1244.51 111.917 1240.55 111.13 1236.86 109.601C1233.17 108.073 1229.82 105.832 1226.99 103.008C1221.29 97.3036 1218.08 89.567 1218.08 81.5C1218.08 73.433 1221.29 65.6964 1226.99 59.9922C1232.7 54.2879 1240.43 51.0833 1248.5 51.0833C1265.23 51.0833 1278.92 63.25 1278.92 78.4583C1278.92 83.2985 1276.99 87.9405 1273.57 91.363C1270.15 94.7856 1265.51 96.7083 1260.67 96.7083H1255.19C1254.28 96.7083 1253.67 97.3167 1253.67 98.2292C1253.67 98.5333 1253.97 98.8375 1253.97 99.1417C1255.19 100.662 1255.8 102.487 1255.8 104.312C1256.1 108.571 1252.76 111.917 1248.5 111.917ZM1248.5 57.1667C1242.05 57.1667 1235.86 59.7303 1231.29 64.2937C1226.73 68.8571 1224.17 75.0464 1224.17 81.5C1224.17 87.9536 1226.73 94.1429 1231.29 98.7063C1235.86 103.27 1242.05 105.833 1248.5 105.833C1249.41 105.833 1250.02 105.225 1250.02 104.312C1250.02 103.704 1249.72 103.4 1249.72 103.096C1248.5 101.575 1247.89 100.054 1247.89 98.2292C1247.89 93.9708 1251.24 90.625 1255.5 90.625H1260.67C1263.89 90.625 1266.99 89.3432 1269.27 87.0615C1271.55 84.7798 1272.83 81.6851 1272.83 78.4583C1272.83 66.5958 1261.88 57.1667 1248.5 57.1667ZM1231.77 75.4167C1234.2 75.4167 1236.33 77.5458 1236.33 79.9792C1236.33 82.4125 1234.2 84.5417 1231.77 84.5417C1229.34 84.5417 1227.21 82.4125 1227.21 79.9792C1227.21 77.5458 1229.34 75.4167 1231.77 75.4167ZM1240.9 63.25C1243.33 63.25 1245.46 65.3792 1245.46 67.8125C1245.46 70.2458 1243.33 72.375 1240.9 72.375C1238.46 72.375 1236.33 70.2458 1236.33 67.8125C1236.33 65.3792 1238.46 63.25 1240.9 63.25ZM1256.1 63.25C1258.54 63.25 1260.67 65.3792 1260.67 67.8125C1260.67 70.2458 1258.54 72.375 1256.1 72.375C1253.67 72.375 1251.54 70.2458 1251.54 67.8125C1251.54 65.3792 1253.67 63.25 1256.1 63.25ZM1265.23 75.4167C1267.66 75.4167 1269.79 77.5458 1269.79 79.9792C1269.79 82.4125 1267.66 84.5417 1265.23 84.5417C1262.8 84.5417 1260.67 82.4125 1260.67 79.9792C1260.67 77.5458 1262.8 75.4167 1265.23 75.4167Z" fill="white"/>
</svg>
