<svg width="1363" height="163" viewBox="0 0 1363 163" fill="none" xmlns="http://www.w3.org/2000/svg">
<path d="M0 15C0 6.71573 6.71573 0 15 0H37V163H15C6.71573 163 0 156.284 0 148V15Z" fill="#424242"/>
<rect width="1097" height="163" transform="translate(37)" fill="#F0F0F0"/>
<path d="M96.1289 43.9375H99.1055L103.488 56.4648L107.871 43.9375H110.848L104.684 61H102.293L96.1289 43.9375ZM94.5234 43.9375H97.4883L98.0273 56.1484V61H94.5234V43.9375ZM109.488 43.9375H112.465V61H108.949V56.1484L109.488 43.9375ZM121.172 61.2344C120.188 61.2344 119.305 61.0781 118.523 60.7656C117.742 60.4453 117.078 60.0039 116.531 59.4414C115.992 58.8789 115.578 58.2266 115.289 57.4844C115 56.7344 114.855 55.9375 114.855 55.0938V54.625C114.855 53.6641 114.992 52.7852 115.266 51.9883C115.539 51.1914 115.93 50.5 116.438 49.9141C116.953 49.3281 117.578 48.8789 118.312 48.5664C119.047 48.2461 119.875 48.0859 120.797 48.0859C121.695 48.0859 122.492 48.2344 123.188 48.5312C123.883 48.8281 124.465 49.25 124.934 49.7969C125.41 50.3438 125.77 51 126.012 51.7656C126.254 52.5234 126.375 53.3672 126.375 54.2969V55.7031H116.297V53.4531H123.059V53.1953C123.059 52.7266 122.973 52.3086 122.801 51.9414C122.637 51.5664 122.387 51.2695 122.051 51.0508C121.715 50.832 121.285 50.7227 120.762 50.7227C120.316 50.7227 119.934 50.8203 119.613 51.0156C119.293 51.2109 119.031 51.4844 118.828 51.8359C118.633 52.1875 118.484 52.6016 118.383 53.0781C118.289 53.5469 118.242 54.0625 118.242 54.625V55.0938C118.242 55.6016 118.312 56.0703 118.453 56.5C118.602 56.9297 118.809 57.3008 119.074 57.6133C119.348 57.9258 119.676 58.168 120.059 58.3398C120.449 58.5117 120.891 58.5977 121.383 58.5977C121.992 58.5977 122.559 58.4805 123.082 58.2461C123.613 58.0039 124.07 57.6406 124.453 57.1562L126.094 58.9375C125.828 59.3203 125.465 59.6875 125.004 60.0391C124.551 60.3906 124.004 60.6797 123.363 60.9062C122.723 61.125 121.992 61.2344 121.172 61.2344ZM135.785 58.2344V43H139.184V61H136.125L135.785 58.2344ZM127.77 54.8125V54.5664C127.77 53.5977 127.879 52.7188 128.098 51.9297C128.316 51.1328 128.637 50.4492 129.059 49.8789C129.48 49.3086 130 48.8672 130.617 48.5547C131.234 48.2422 131.938 48.0859 132.727 48.0859C133.469 48.0859 134.117 48.2422 134.672 48.5547C135.234 48.8672 135.711 49.3125 136.102 49.8906C136.5 50.4609 136.82 51.1367 137.062 51.918C137.305 52.6914 137.48 53.5391 137.59 54.4609V55C137.48 55.8828 137.305 56.7031 137.062 57.4609C136.82 58.2188 136.5 58.8828 136.102 59.4531C135.711 60.0156 135.234 60.4531 134.672 60.7656C134.109 61.0781 133.453 61.2344 132.703 61.2344C131.914 61.2344 131.211 61.0742 130.594 60.7539C129.984 60.4336 129.469 59.9844 129.047 59.4062C128.633 58.8281 128.316 58.1484 128.098 57.3672C127.879 56.5859 127.77 55.7344 127.77 54.8125ZM131.145 54.5664V54.8125C131.145 55.3359 131.184 55.8242 131.262 56.2773C131.348 56.7305 131.484 57.1328 131.672 57.4844C131.867 57.8281 132.117 58.0977 132.422 58.293C132.734 58.4805 133.113 58.5742 133.559 58.5742C134.137 58.5742 134.613 58.4453 134.988 58.1875C135.363 57.9219 135.648 57.5586 135.844 57.0977C136.047 56.6367 136.164 56.1055 136.195 55.5039V53.9688C136.172 53.4766 136.102 53.0352 135.984 52.6445C135.875 52.2461 135.711 51.9062 135.492 51.625C135.281 51.3438 135.016 51.125 134.695 50.9688C134.383 50.8125 134.012 50.7344 133.582 50.7344C133.145 50.7344 132.77 50.8359 132.457 51.0391C132.145 51.2344 131.891 51.5039 131.695 51.8477C131.508 52.1914 131.367 52.5977 131.273 53.0664C131.188 53.5273 131.145 54.0273 131.145 54.5664ZM145.383 48.3203V61H141.996V48.3203H145.383ZM141.785 45.0156C141.785 44.5234 141.957 44.1172 142.301 43.7969C142.645 43.4766 143.105 43.3164 143.684 43.3164C144.254 43.3164 144.711 43.4766 145.055 43.7969C145.406 44.1172 145.582 44.5234 145.582 45.0156C145.582 45.5078 145.406 45.9141 145.055 46.2344C144.711 46.5547 144.254 46.7148 143.684 46.7148C143.105 46.7148 142.645 46.5547 142.301 46.2344C141.957 45.9141 141.785 45.5078 141.785 45.0156ZM153.41 58.5977C153.824 58.5977 154.191 58.5195 154.512 58.3633C154.832 58.1992 155.082 57.9727 155.262 57.6836C155.449 57.3867 155.547 57.0391 155.555 56.6406H158.73C158.723 57.5312 158.484 58.3242 158.016 59.0195C157.547 59.707 156.918 60.25 156.129 60.6484C155.34 61.0391 154.457 61.2344 153.48 61.2344C152.496 61.2344 151.637 61.0703 150.902 60.7422C150.176 60.4141 149.57 59.9609 149.086 59.3828C148.602 58.7969 148.238 58.1172 147.996 57.3438C147.754 56.5625 147.633 55.7266 147.633 54.8359V54.4961C147.633 53.5977 147.754 52.7617 147.996 51.9883C148.238 51.207 148.602 50.5273 149.086 49.9492C149.57 49.3633 150.176 48.9062 150.902 48.5781C151.629 48.25 152.48 48.0859 153.457 48.0859C154.496 48.0859 155.406 48.2852 156.188 48.6836C156.977 49.082 157.594 49.6523 158.039 50.3945C158.492 51.1289 158.723 52 158.73 53.0078H155.555C155.547 52.5859 155.457 52.2031 155.285 51.8594C155.121 51.5156 154.879 51.2422 154.559 51.0391C154.246 50.8281 153.859 50.7227 153.398 50.7227C152.906 50.7227 152.504 50.8281 152.191 51.0391C151.879 51.2422 151.637 51.5234 151.465 51.8828C151.293 52.2344 151.172 52.6367 151.102 53.0898C151.039 53.5352 151.008 54.0039 151.008 54.4961V54.8359C151.008 55.3281 151.039 55.8008 151.102 56.2539C151.164 56.707 151.281 57.1094 151.453 57.4609C151.633 57.8125 151.879 58.0898 152.191 58.293C152.504 58.4961 152.91 58.5977 153.41 58.5977ZM167.531 58.1406V52.4922C167.531 52.0859 167.465 51.7383 167.332 51.4492C167.199 51.1523 166.992 50.9219 166.711 50.7578C166.438 50.5938 166.082 50.5117 165.645 50.5117C165.27 50.5117 164.945 50.5781 164.672 50.7109C164.398 50.8359 164.188 51.0195 164.039 51.2617C163.891 51.4961 163.816 51.7734 163.816 52.0938H160.441C160.441 51.5547 160.566 51.043 160.816 50.5586C161.066 50.0742 161.43 49.6484 161.906 49.2812C162.383 48.9062 162.949 48.6133 163.605 48.4023C164.27 48.1914 165.012 48.0859 165.832 48.0859C166.816 48.0859 167.691 48.25 168.457 48.5781C169.223 48.9062 169.824 49.3984 170.262 50.0547C170.707 50.7109 170.93 51.5312 170.93 52.5156V57.9414C170.93 58.6367 170.973 59.207 171.059 59.6523C171.145 60.0898 171.27 60.4727 171.434 60.8008V61H168.023C167.859 60.6562 167.734 60.2266 167.648 59.7109C167.57 59.1875 167.531 58.6641 167.531 58.1406ZM167.977 53.2773L168 55.1875H166.113C165.668 55.1875 165.281 55.2383 164.953 55.3398C164.625 55.4414 164.355 55.5859 164.145 55.7734C163.934 55.9531 163.777 56.1641 163.676 56.4062C163.582 56.6484 163.535 56.9141 163.535 57.2031C163.535 57.4922 163.602 57.7539 163.734 57.9883C163.867 58.2148 164.059 58.3945 164.309 58.5273C164.559 58.6523 164.852 58.7148 165.188 58.7148C165.695 58.7148 166.137 58.6133 166.512 58.4102C166.887 58.207 167.176 57.957 167.379 57.6602C167.59 57.3633 167.699 57.082 167.707 56.8164L168.598 58.2461C168.473 58.5664 168.301 58.8984 168.082 59.2422C167.871 59.5859 167.602 59.9102 167.273 60.2148C166.945 60.5117 166.551 60.7578 166.09 60.9531C165.629 61.1406 165.082 61.2344 164.449 61.2344C163.645 61.2344 162.914 61.0742 162.258 60.7539C161.609 60.4258 161.094 59.9766 160.711 59.4062C160.336 58.8281 160.148 58.1719 160.148 57.4375C160.148 56.7734 160.273 56.1836 160.523 55.668C160.773 55.1523 161.141 54.7188 161.625 54.3672C162.117 54.0078 162.73 53.7383 163.465 53.5586C164.199 53.3711 165.051 53.2773 166.02 53.2773H167.977ZM176.906 51.0859V61H173.531V48.3203H176.707L176.906 51.0859ZM180.727 48.2383L180.668 51.3672C180.504 51.3438 180.305 51.3242 180.07 51.3086C179.844 51.2852 179.637 51.2734 179.449 51.2734C178.973 51.2734 178.559 51.3359 178.207 51.4609C177.863 51.5781 177.574 51.7539 177.34 51.9883C177.113 52.2227 176.941 52.5078 176.824 52.8438C176.715 53.1797 176.652 53.5625 176.637 53.9922L175.957 53.7812C175.957 52.9609 176.039 52.207 176.203 51.5195C176.367 50.8242 176.605 50.2188 176.918 49.7031C177.238 49.1875 177.629 48.7891 178.09 48.5078C178.551 48.2266 179.078 48.0859 179.672 48.0859C179.859 48.0859 180.051 48.1016 180.246 48.1328C180.441 48.1562 180.602 48.1914 180.727 48.2383ZM187.922 61.2344C186.938 61.2344 186.055 61.0781 185.273 60.7656C184.492 60.4453 183.828 60.0039 183.281 59.4414C182.742 58.8789 182.328 58.2266 182.039 57.4844C181.75 56.7344 181.605 55.9375 181.605 55.0938V54.625C181.605 53.6641 181.742 52.7852 182.016 51.9883C182.289 51.1914 182.68 50.5 183.188 49.9141C183.703 49.3281 184.328 48.8789 185.062 48.5664C185.797 48.2461 186.625 48.0859 187.547 48.0859C188.445 48.0859 189.242 48.2344 189.938 48.5312C190.633 48.8281 191.215 49.25 191.684 49.7969C192.16 50.3438 192.52 51 192.762 51.7656C193.004 52.5234 193.125 53.3672 193.125 54.2969V55.7031H183.047V53.4531H189.809V53.1953C189.809 52.7266 189.723 52.3086 189.551 51.9414C189.387 51.5664 189.137 51.2695 188.801 51.0508C188.465 50.832 188.035 50.7227 187.512 50.7227C187.066 50.7227 186.684 50.8203 186.363 51.0156C186.043 51.2109 185.781 51.4844 185.578 51.8359C185.383 52.1875 185.234 52.6016 185.133 53.0781C185.039 53.5469 184.992 54.0625 184.992 54.625V55.0938C184.992 55.6016 185.062 56.0703 185.203 56.5C185.352 56.9297 185.559 57.3008 185.824 57.6133C186.098 57.9258 186.426 58.168 186.809 58.3398C187.199 58.5117 187.641 58.5977 188.133 58.5977C188.742 58.5977 189.309 58.4805 189.832 58.2461C190.363 58.0039 190.82 57.6406 191.203 57.1562L192.844 58.9375C192.578 59.3203 192.215 59.6875 191.754 60.0391C191.301 60.3906 190.754 60.6797 190.113 60.9062C189.473 61.125 188.742 61.2344 187.922 61.2344Z" fill="#888888"/>
<path d="M114.117 84.875H122.344V107.164C122.344 109.82 121.789 112.07 120.68 113.914C119.57 115.742 118.016 117.125 116.016 118.062C114.016 119 111.664 119.469 108.961 119.469C106.289 119.469 103.938 119 101.906 118.062C99.8906 117.125 98.3125 115.742 97.1719 113.914C96.0469 112.07 95.4844 109.82 95.4844 107.164V84.875H103.734V107.164C103.734 108.57 103.938 109.719 104.344 110.609C104.75 111.484 105.344 112.125 106.125 112.531C106.906 112.938 107.852 113.141 108.961 113.141C110.086 113.141 111.031 112.938 111.797 112.531C112.562 112.125 113.141 111.484 113.531 110.609C113.922 109.719 114.117 108.57 114.117 107.164V84.875ZM134.906 99.0547V119H127.008V93.6406H134.414L134.906 99.0547ZM133.969 105.453L132.117 105.5C132.117 103.562 132.352 101.836 132.82 100.32C133.289 98.7891 133.953 97.4922 134.812 96.4297C135.672 95.3672 136.695 94.5625 137.883 94.0156C139.086 93.4531 140.422 93.1719 141.891 93.1719C143.062 93.1719 144.133 93.3438 145.102 93.6875C146.086 94.0312 146.93 94.5859 147.633 95.3516C148.352 96.1172 148.898 97.1328 149.273 98.3984C149.664 99.6484 149.859 101.195 149.859 103.039V119H141.914V103.016C141.914 102 141.773 101.227 141.492 100.695C141.211 100.148 140.805 99.7734 140.273 99.5703C139.742 99.3672 139.094 99.2656 138.328 99.2656C137.516 99.2656 136.828 99.4219 136.266 99.7344C135.703 100.047 135.25 100.484 134.906 101.047C134.578 101.594 134.336 102.242 134.18 102.992C134.039 103.742 133.969 104.562 133.969 105.453ZM162.586 93.6406V119H154.664V93.6406H162.586ZM154.195 87.1016C154.195 85.9766 154.602 85.0547 155.414 84.3359C156.227 83.6172 157.281 83.2578 158.578 83.2578C159.875 83.2578 160.93 83.6172 161.742 84.3359C162.555 85.0547 162.961 85.9766 162.961 87.1016C162.961 88.2266 162.555 89.1484 161.742 89.8672C160.93 90.5859 159.875 90.9453 158.578 90.9453C157.281 90.9453 156.227 90.5859 155.414 89.8672C154.602 89.1484 154.195 88.2266 154.195 87.1016ZM180.82 93.6406V99.125H165.539V93.6406H180.82ZM168.75 87.3359H176.648V110.727C176.648 111.398 176.727 111.922 176.883 112.297C177.039 112.656 177.305 112.914 177.68 113.07C178.07 113.211 178.586 113.281 179.227 113.281C179.68 113.281 180.055 113.273 180.352 113.258C180.648 113.227 180.93 113.188 181.195 113.141V118.789C180.523 119.008 179.82 119.172 179.086 119.281C178.352 119.406 177.57 119.469 176.742 119.469C175.055 119.469 173.609 119.203 172.406 118.672C171.219 118.141 170.312 117.305 169.688 116.164C169.062 115.023 168.75 113.539 168.75 111.711V87.3359ZM211.406 84.875V119H203.18V84.875H211.406ZM221.672 84.875V91.2266H193.148V84.875H221.672ZM234.961 119.469C232.898 119.469 231.055 119.148 229.43 118.508C227.805 117.852 226.43 116.953 225.305 115.812C224.195 114.672 223.344 113.359 222.75 111.875C222.172 110.391 221.883 108.82 221.883 107.164V106.273C221.883 104.414 222.141 102.695 222.656 101.117C223.172 99.5234 223.938 98.1328 224.953 96.9453C225.969 95.7578 227.242 94.8359 228.773 94.1797C230.305 93.5078 232.086 93.1719 234.117 93.1719C235.914 93.1719 237.523 93.4609 238.945 94.0391C240.367 94.6172 241.57 95.4453 242.555 96.5234C243.555 97.6016 244.312 98.9062 244.828 100.438C245.359 101.969 245.625 103.688 245.625 105.594V108.805H224.906V103.859H237.914V103.25C237.93 102.406 237.781 101.688 237.469 101.094C237.172 100.5 236.734 100.047 236.156 99.7344C235.578 99.4219 234.875 99.2656 234.047 99.2656C233.188 99.2656 232.477 99.4531 231.914 99.8281C231.367 100.203 230.938 100.719 230.625 101.375C230.328 102.016 230.117 102.758 229.992 103.602C229.867 104.445 229.805 105.336 229.805 106.273V107.164C229.805 108.102 229.93 108.953 230.18 109.719C230.445 110.484 230.82 111.141 231.305 111.688C231.805 112.219 232.398 112.633 233.086 112.93C233.789 113.227 234.586 113.375 235.477 113.375C236.555 113.375 237.617 113.172 238.664 112.766C239.711 112.359 240.609 111.688 241.359 110.75L244.945 115.016C244.43 115.75 243.695 116.461 242.742 117.148C241.805 117.836 240.68 118.398 239.367 118.836C238.055 119.258 236.586 119.469 234.961 119.469ZM262.125 111.875C262.125 111.438 261.977 111.062 261.68 110.75C261.398 110.422 260.898 110.125 260.18 109.859C259.461 109.578 258.453 109.297 257.156 109.016C255.922 108.75 254.758 108.398 253.664 107.961C252.586 107.523 251.641 106.992 250.828 106.367C250.016 105.742 249.375 105 248.906 104.141C248.453 103.281 248.227 102.297 248.227 101.188C248.227 100.109 248.453 99.0938 248.906 98.1406C249.375 97.1719 250.055 96.3203 250.945 95.5859C251.852 94.8359 252.953 94.25 254.25 93.8281C255.547 93.3906 257.023 93.1719 258.68 93.1719C260.961 93.1719 262.93 93.5234 264.586 94.2266C266.242 94.9141 267.516 95.8828 268.406 97.1328C269.312 98.3672 269.766 99.7969 269.766 101.422H261.867C261.867 100.781 261.758 100.234 261.539 99.7812C261.336 99.3281 261 98.9844 260.531 98.75C260.062 98.5 259.438 98.375 258.656 98.375C258.109 98.375 257.609 98.4766 257.156 98.6797C256.719 98.8828 256.367 99.1641 256.102 99.5234C255.836 99.8828 255.703 100.305 255.703 100.789C255.703 101.133 255.781 101.445 255.938 101.727C256.109 101.992 256.367 102.242 256.711 102.477C257.055 102.695 257.492 102.898 258.023 103.086C258.555 103.258 259.195 103.414 259.945 103.555C261.648 103.867 263.242 104.312 264.727 104.891C266.211 105.469 267.414 106.289 268.336 107.352C269.273 108.414 269.742 109.844 269.742 111.641C269.742 112.766 269.484 113.805 268.969 114.758C268.453 115.695 267.711 116.523 266.742 117.242C265.773 117.945 264.609 118.492 263.25 118.883C261.891 119.273 260.359 119.469 258.656 119.469C256.234 119.469 254.188 119.039 252.516 118.18C250.844 117.305 249.578 116.211 248.719 114.898C247.875 113.57 247.453 112.227 247.453 110.867H254.812C254.844 111.648 255.031 112.289 255.375 112.789C255.734 113.289 256.211 113.656 256.805 113.891C257.398 114.125 258.086 114.242 258.867 114.242C259.586 114.242 260.18 114.141 260.648 113.938C261.133 113.734 261.5 113.461 261.75 113.117C262 112.758 262.125 112.344 262.125 111.875ZM286.805 93.6406V99.125H271.523V93.6406H286.805ZM274.734 87.3359H282.633V110.727C282.633 111.398 282.711 111.922 282.867 112.297C283.023 112.656 283.289 112.914 283.664 113.07C284.055 113.211 284.57 113.281 285.211 113.281C285.664 113.281 286.039 113.273 286.336 113.258C286.633 113.227 286.914 113.188 287.18 113.141V118.789C286.508 119.008 285.805 119.172 285.07 119.281C284.336 119.406 283.555 119.469 282.727 119.469C281.039 119.469 279.594 119.203 278.391 118.672C277.203 118.141 276.297 117.305 275.672 116.164C275.047 115.023 274.734 113.539 274.734 111.711V87.3359ZM298.289 93.6406V119H290.367V93.6406H298.289ZM289.898 87.1016C289.898 85.9766 290.305 85.0547 291.117 84.3359C291.93 83.6172 292.984 83.2578 294.281 83.2578C295.578 83.2578 296.633 83.6172 297.445 84.3359C298.258 85.0547 298.664 85.9766 298.664 87.1016C298.664 88.2266 298.258 89.1484 297.445 89.8672C296.633 90.5859 295.578 90.9453 294.281 90.9453C292.984 90.9453 291.93 90.5859 291.117 89.8672C290.305 89.1484 289.898 88.2266 289.898 87.1016ZM310.922 99.0547V119H303.023V93.6406H310.43L310.922 99.0547ZM309.984 105.453L308.133 105.5C308.133 103.562 308.367 101.836 308.836 100.32C309.305 98.7891 309.969 97.4922 310.828 96.4297C311.688 95.3672 312.711 94.5625 313.898 94.0156C315.102 93.4531 316.438 93.1719 317.906 93.1719C319.078 93.1719 320.148 93.3438 321.117 93.6875C322.102 94.0312 322.945 94.5859 323.648 95.3516C324.367 96.1172 324.914 97.1328 325.289 98.3984C325.68 99.6484 325.875 101.195 325.875 103.039V119H317.93V103.016C317.93 102 317.789 101.227 317.508 100.695C317.227 100.148 316.82 99.7734 316.289 99.5703C315.758 99.3672 315.109 99.2656 314.344 99.2656C313.531 99.2656 312.844 99.4219 312.281 99.7344C311.719 100.047 311.266 100.484 310.922 101.047C310.594 101.594 310.352 102.242 310.195 102.992C310.055 103.742 309.984 104.562 309.984 105.453ZM346.195 93.6406H353.367V118.016C353.367 120.359 352.828 122.344 351.75 123.969C350.672 125.609 349.164 126.852 347.227 127.695C345.305 128.555 343.055 128.984 340.477 128.984C339.336 128.984 338.172 128.836 336.984 128.539C335.797 128.258 334.688 127.836 333.656 127.273C332.625 126.711 331.758 126.016 331.055 125.188L334.359 120.547C335 121.266 335.805 121.875 336.773 122.375C337.742 122.891 338.883 123.148 340.195 123.148C341.336 123.148 342.289 122.945 343.055 122.539C343.836 122.133 344.43 121.539 344.836 120.758C345.242 119.992 345.445 119.062 345.445 117.969V99.6406L346.195 93.6406ZM329.344 106.625V106.133C329.344 104.211 329.578 102.461 330.047 100.883C330.531 99.2891 331.219 97.9219 332.109 96.7812C333.016 95.625 334.109 94.7344 335.391 94.1094C336.672 93.4844 338.117 93.1719 339.727 93.1719C341.461 93.1719 342.883 93.5078 343.992 94.1797C345.117 94.8359 346.016 95.7578 346.688 96.9453C347.375 98.1328 347.906 99.5234 348.281 101.117C348.672 102.695 349 104.398 349.266 106.227V106.812C349 108.531 348.633 110.156 348.164 111.688C347.711 113.203 347.117 114.547 346.383 115.719C345.648 116.891 344.727 117.812 343.617 118.484C342.523 119.141 341.211 119.469 339.68 119.469C338.086 119.469 336.648 119.148 335.367 118.508C334.102 117.867 333.016 116.969 332.109 115.812C331.219 114.656 330.531 113.297 330.047 111.734C329.578 110.172 329.344 108.469 329.344 106.625ZM337.242 106.133V106.625C337.242 107.578 337.328 108.461 337.5 109.273C337.688 110.086 337.969 110.805 338.344 111.43C338.719 112.039 339.18 112.516 339.727 112.859C340.289 113.203 340.945 113.375 341.695 113.375C342.836 113.375 343.758 113.133 344.461 112.648C345.164 112.164 345.672 111.477 345.984 110.586C346.297 109.695 346.43 108.648 346.383 107.445V105.594C346.414 104.562 346.344 103.656 346.172 102.875C346 102.078 345.727 101.414 345.352 100.883C344.992 100.352 344.508 99.9531 343.898 99.6875C343.305 99.4062 342.586 99.2656 341.742 99.2656C341.008 99.2656 340.359 99.4375 339.797 99.7812C339.234 100.125 338.766 100.609 338.391 101.234C338.016 101.844 337.727 102.57 337.523 103.414C337.336 104.242 337.242 105.148 337.242 106.133Z" fill="black"/>
<path d="M1134 0H1348C1356.28 0 1363 6.71573 1363 15V148C1363 156.284 1356.28 163 1348 163H1134V0Z" fill="#8ABCD7"/>
<path d="M1210.62 43.625H1286.38V119.375H1210.62V43.625Z" fill="white" fill-opacity="0.01"/>
<path d="M1276.91 72.0312V105.172C1276.91 107.787 1274.79 109.906 1272.17 109.906H1224.83C1222.21 109.906 1220.09 107.787 1220.09 105.172V57.8281C1220.09 55.2134 1222.21 53.0938 1224.83 53.0938H1261.12" stroke="white" stroke-width="7.24" stroke-linecap="round" stroke-linejoin="round"/>
<path d="M1232.72 75.1875L1248.5 87.8125L1276.91 53.0938" stroke="white" stroke-width="7.24" stroke-linecap="round" stroke-linejoin="round"/>
</svg>
