<svg width="1363" height="163" viewBox="0 0 1363 163" fill="none" xmlns="http://www.w3.org/2000/svg">
<path d="M0 15C0 6.71573 6.71573 0 15 0H37V163H15C6.71573 163 0 156.284 0 148V15Z" fill="#424242"/>
<rect width="1097" height="163" transform="translate(37)" fill="#F0F0F0"/>
<path d="M96.1289 43.9375H99.1055L103.488 56.4648L107.871 43.9375H110.848L104.684 61H102.293L96.1289 43.9375ZM94.5234 43.9375H97.4883L98.0273 56.1484V61H94.5234V43.9375ZM109.488 43.9375H112.465V61H108.949V56.1484L109.488 43.9375ZM121.172 61.2344C120.188 61.2344 119.305 61.0781 118.523 60.7656C117.742 60.4453 117.078 60.0039 116.531 59.4414C115.992 58.8789 115.578 58.2266 115.289 57.4844C115 56.7344 114.855 55.9375 114.855 55.0938V54.625C114.855 53.6641 114.992 52.7852 115.266 51.9883C115.539 51.1914 115.93 50.5 116.438 49.9141C116.953 49.3281 117.578 48.8789 118.312 48.5664C119.047 48.2461 119.875 48.0859 120.797 48.0859C121.695 48.0859 122.492 48.2344 123.188 48.5312C123.883 48.8281 124.465 49.25 124.934 49.7969C125.41 50.3438 125.77 51 126.012 51.7656C126.254 52.5234 126.375 53.3672 126.375 54.2969V55.7031H116.297V53.4531H123.059V53.1953C123.059 52.7266 122.973 52.3086 122.801 51.9414C122.637 51.5664 122.387 51.2695 122.051 51.0508C121.715 50.832 121.285 50.7227 120.762 50.7227C120.316 50.7227 119.934 50.8203 119.613 51.0156C119.293 51.2109 119.031 51.4844 118.828 51.8359C118.633 52.1875 118.484 52.6016 118.383 53.0781C118.289 53.5469 118.242 54.0625 118.242 54.625V55.0938C118.242 55.6016 118.312 56.0703 118.453 56.5C118.602 56.9297 118.809 57.3008 119.074 57.6133C119.348 57.9258 119.676 58.168 120.059 58.3398C120.449 58.5117 120.891 58.5977 121.383 58.5977C121.992 58.5977 122.559 58.4805 123.082 58.2461C123.613 58.0039 124.07 57.6406 124.453 57.1562L126.094 58.9375C125.828 59.3203 125.465 59.6875 125.004 60.0391C124.551 60.3906 124.004 60.6797 123.363 60.9062C122.723 61.125 121.992 61.2344 121.172 61.2344ZM135.785 58.2344V43H139.184V61H136.125L135.785 58.2344ZM127.77 54.8125V54.5664C127.77 53.5977 127.879 52.7188 128.098 51.9297C128.316 51.1328 128.637 50.4492 129.059 49.8789C129.48 49.3086 130 48.8672 130.617 48.5547C131.234 48.2422 131.938 48.0859 132.727 48.0859C133.469 48.0859 134.117 48.2422 134.672 48.5547C135.234 48.8672 135.711 49.3125 136.102 49.8906C136.5 50.4609 136.82 51.1367 137.062 51.918C137.305 52.6914 137.48 53.5391 137.59 54.4609V55C137.48 55.8828 137.305 56.7031 137.062 57.4609C136.82 58.2188 136.5 58.8828 136.102 59.4531C135.711 60.0156 135.234 60.4531 134.672 60.7656C134.109 61.0781 133.453 61.2344 132.703 61.2344C131.914 61.2344 131.211 61.0742 130.594 60.7539C129.984 60.4336 129.469 59.9844 129.047 59.4062C128.633 58.8281 128.316 58.1484 128.098 57.3672C127.879 56.5859 127.77 55.7344 127.77 54.8125ZM131.145 54.5664V54.8125C131.145 55.3359 131.184 55.8242 131.262 56.2773C131.348 56.7305 131.484 57.1328 131.672 57.4844C131.867 57.8281 132.117 58.0977 132.422 58.293C132.734 58.4805 133.113 58.5742 133.559 58.5742C134.137 58.5742 134.613 58.4453 134.988 58.1875C135.363 57.9219 135.648 57.5586 135.844 57.0977C136.047 56.6367 136.164 56.1055 136.195 55.5039V53.9688C136.172 53.4766 136.102 53.0352 135.984 52.6445C135.875 52.2461 135.711 51.9062 135.492 51.625C135.281 51.3438 135.016 51.125 134.695 50.9688C134.383 50.8125 134.012 50.7344 133.582 50.7344C133.145 50.7344 132.77 50.8359 132.457 51.0391C132.145 51.2344 131.891 51.5039 131.695 51.8477C131.508 52.1914 131.367 52.5977 131.273 53.0664C131.188 53.5273 131.145 54.0273 131.145 54.5664ZM145.383 48.3203V61H141.996V48.3203H145.383ZM141.785 45.0156C141.785 44.5234 141.957 44.1172 142.301 43.7969C142.645 43.4766 143.105 43.3164 143.684 43.3164C144.254 43.3164 144.711 43.4766 145.055 43.7969C145.406 44.1172 145.582 44.5234 145.582 45.0156C145.582 45.5078 145.406 45.9141 145.055 46.2344C144.711 46.5547 144.254 46.7148 143.684 46.7148C143.105 46.7148 142.645 46.5547 142.301 46.2344C141.957 45.9141 141.785 45.5078 141.785 45.0156ZM153.41 58.5977C153.824 58.5977 154.191 58.5195 154.512 58.3633C154.832 58.1992 155.082 57.9727 155.262 57.6836C155.449 57.3867 155.547 57.0391 155.555 56.6406H158.73C158.723 57.5312 158.484 58.3242 158.016 59.0195C157.547 59.707 156.918 60.25 156.129 60.6484C155.34 61.0391 154.457 61.2344 153.48 61.2344C152.496 61.2344 151.637 61.0703 150.902 60.7422C150.176 60.4141 149.57 59.9609 149.086 59.3828C148.602 58.7969 148.238 58.1172 147.996 57.3438C147.754 56.5625 147.633 55.7266 147.633 54.8359V54.4961C147.633 53.5977 147.754 52.7617 147.996 51.9883C148.238 51.207 148.602 50.5273 149.086 49.9492C149.57 49.3633 150.176 48.9062 150.902 48.5781C151.629 48.25 152.48 48.0859 153.457 48.0859C154.496 48.0859 155.406 48.2852 156.188 48.6836C156.977 49.082 157.594 49.6523 158.039 50.3945C158.492 51.1289 158.723 52 158.73 53.0078H155.555C155.547 52.5859 155.457 52.2031 155.285 51.8594C155.121 51.5156 154.879 51.2422 154.559 51.0391C154.246 50.8281 153.859 50.7227 153.398 50.7227C152.906 50.7227 152.504 50.8281 152.191 51.0391C151.879 51.2422 151.637 51.5234 151.465 51.8828C151.293 52.2344 151.172 52.6367 151.102 53.0898C151.039 53.5352 151.008 54.0039 151.008 54.4961V54.8359C151.008 55.3281 151.039 55.8008 151.102 56.2539C151.164 56.707 151.281 57.1094 151.453 57.4609C151.633 57.8125 151.879 58.0898 152.191 58.293C152.504 58.4961 152.91 58.5977 153.41 58.5977ZM167.531 58.1406V52.4922C167.531 52.0859 167.465 51.7383 167.332 51.4492C167.199 51.1523 166.992 50.9219 166.711 50.7578C166.438 50.5938 166.082 50.5117 165.645 50.5117C165.27 50.5117 164.945 50.5781 164.672 50.7109C164.398 50.8359 164.188 51.0195 164.039 51.2617C163.891 51.4961 163.816 51.7734 163.816 52.0938H160.441C160.441 51.5547 160.566 51.043 160.816 50.5586C161.066 50.0742 161.43 49.6484 161.906 49.2812C162.383 48.9062 162.949 48.6133 163.605 48.4023C164.27 48.1914 165.012 48.0859 165.832 48.0859C166.816 48.0859 167.691 48.25 168.457 48.5781C169.223 48.9062 169.824 49.3984 170.262 50.0547C170.707 50.7109 170.93 51.5312 170.93 52.5156V57.9414C170.93 58.6367 170.973 59.207 171.059 59.6523C171.145 60.0898 171.27 60.4727 171.434 60.8008V61H168.023C167.859 60.6562 167.734 60.2266 167.648 59.7109C167.57 59.1875 167.531 58.6641 167.531 58.1406ZM167.977 53.2773L168 55.1875H166.113C165.668 55.1875 165.281 55.2383 164.953 55.3398C164.625 55.4414 164.355 55.5859 164.145 55.7734C163.934 55.9531 163.777 56.1641 163.676 56.4062C163.582 56.6484 163.535 56.9141 163.535 57.2031C163.535 57.4922 163.602 57.7539 163.734 57.9883C163.867 58.2148 164.059 58.3945 164.309 58.5273C164.559 58.6523 164.852 58.7148 165.188 58.7148C165.695 58.7148 166.137 58.6133 166.512 58.4102C166.887 58.207 167.176 57.957 167.379 57.6602C167.59 57.3633 167.699 57.082 167.707 56.8164L168.598 58.2461C168.473 58.5664 168.301 58.8984 168.082 59.2422C167.871 59.5859 167.602 59.9102 167.273 60.2148C166.945 60.5117 166.551 60.7578 166.09 60.9531C165.629 61.1406 165.082 61.2344 164.449 61.2344C163.645 61.2344 162.914 61.0742 162.258 60.7539C161.609 60.4258 161.094 59.9766 160.711 59.4062C160.336 58.8281 160.148 58.1719 160.148 57.4375C160.148 56.7734 160.273 56.1836 160.523 55.668C160.773 55.1523 161.141 54.7188 161.625 54.3672C162.117 54.0078 162.73 53.7383 163.465 53.5586C164.199 53.3711 165.051 53.2773 166.02 53.2773H167.977ZM176.906 51.0859V61H173.531V48.3203H176.707L176.906 51.0859ZM180.727 48.2383L180.668 51.3672C180.504 51.3438 180.305 51.3242 180.07 51.3086C179.844 51.2852 179.637 51.2734 179.449 51.2734C178.973 51.2734 178.559 51.3359 178.207 51.4609C177.863 51.5781 177.574 51.7539 177.34 51.9883C177.113 52.2227 176.941 52.5078 176.824 52.8438C176.715 53.1797 176.652 53.5625 176.637 53.9922L175.957 53.7812C175.957 52.9609 176.039 52.207 176.203 51.5195C176.367 50.8242 176.605 50.2188 176.918 49.7031C177.238 49.1875 177.629 48.7891 178.09 48.5078C178.551 48.2266 179.078 48.0859 179.672 48.0859C179.859 48.0859 180.051 48.1016 180.246 48.1328C180.441 48.1562 180.602 48.1914 180.727 48.2383ZM187.922 61.2344C186.938 61.2344 186.055 61.0781 185.273 60.7656C184.492 60.4453 183.828 60.0039 183.281 59.4414C182.742 58.8789 182.328 58.2266 182.039 57.4844C181.75 56.7344 181.605 55.9375 181.605 55.0938V54.625C181.605 53.6641 181.742 52.7852 182.016 51.9883C182.289 51.1914 182.68 50.5 183.188 49.9141C183.703 49.3281 184.328 48.8789 185.062 48.5664C185.797 48.2461 186.625 48.0859 187.547 48.0859C188.445 48.0859 189.242 48.2344 189.938 48.5312C190.633 48.8281 191.215 49.25 191.684 49.7969C192.16 50.3438 192.52 51 192.762 51.7656C193.004 52.5234 193.125 53.3672 193.125 54.2969V55.7031H183.047V53.4531H189.809V53.1953C189.809 52.7266 189.723 52.3086 189.551 51.9414C189.387 51.5664 189.137 51.2695 188.801 51.0508C188.465 50.832 188.035 50.7227 187.512 50.7227C187.066 50.7227 186.684 50.8203 186.363 51.0156C186.043 51.2109 185.781 51.4844 185.578 51.8359C185.383 52.1875 185.234 52.6016 185.133 53.0781C185.039 53.5469 184.992 54.0625 184.992 54.625V55.0938C184.992 55.6016 185.062 56.0703 185.203 56.5C185.352 56.9297 185.559 57.3008 185.824 57.6133C186.098 57.9258 186.426 58.168 186.809 58.3398C187.199 58.5117 187.641 58.5977 188.133 58.5977C188.742 58.5977 189.309 58.4805 189.832 58.2461C190.363 58.0039 190.82 57.6406 191.203 57.1562L192.844 58.9375C192.578 59.3203 192.215 59.6875 191.754 60.0391C191.301 60.3906 190.754 60.6797 190.113 60.9062C189.473 61.125 188.742 61.2344 187.922 61.2344Z" fill="#888888"/>
<path d="M112.125 84.875V119H103.898V84.875H112.125ZM122.391 84.875V91.2266H93.8672V84.875H122.391ZM135.68 119.469C133.617 119.469 131.773 119.148 130.148 118.508C128.523 117.852 127.148 116.953 126.023 115.812C124.914 114.672 124.062 113.359 123.469 111.875C122.891 110.391 122.602 108.82 122.602 107.164V106.273C122.602 104.414 122.859 102.695 123.375 101.117C123.891 99.5234 124.656 98.1328 125.672 96.9453C126.688 95.7578 127.961 94.8359 129.492 94.1797C131.023 93.5078 132.805 93.1719 134.836 93.1719C136.633 93.1719 138.242 93.4609 139.664 94.0391C141.086 94.6172 142.289 95.4453 143.273 96.5234C144.273 97.6016 145.031 98.9062 145.547 100.438C146.078 101.969 146.344 103.688 146.344 105.594V108.805H125.625V103.859H138.633V103.25C138.648 102.406 138.5 101.688 138.188 101.094C137.891 100.5 137.453 100.047 136.875 99.7344C136.297 99.4219 135.594 99.2656 134.766 99.2656C133.906 99.2656 133.195 99.4531 132.633 99.8281C132.086 100.203 131.656 100.719 131.344 101.375C131.047 102.016 130.836 102.758 130.711 103.602C130.586 104.445 130.523 105.336 130.523 106.273V107.164C130.523 108.102 130.648 108.953 130.898 109.719C131.164 110.484 131.539 111.141 132.023 111.688C132.523 112.219 133.117 112.633 133.805 112.93C134.508 113.227 135.305 113.375 136.195 113.375C137.273 113.375 138.336 113.172 139.383 112.766C140.43 112.359 141.328 111.688 142.078 110.75L145.664 115.016C145.148 115.75 144.414 116.461 143.461 117.148C142.523 117.836 141.398 118.398 140.086 118.836C138.773 119.258 137.305 119.469 135.68 119.469ZM160.266 113.375C161 113.375 161.625 113.242 162.141 112.977C162.672 112.695 163.07 112.305 163.336 111.805C163.617 111.289 163.75 110.672 163.734 109.953H171.164C171.18 111.859 170.711 113.531 169.758 114.969C168.82 116.391 167.539 117.5 165.914 118.297C164.305 119.078 162.484 119.469 160.453 119.469C158.469 119.469 156.734 119.148 155.25 118.508C153.766 117.852 152.523 116.945 151.523 115.789C150.539 114.617 149.797 113.25 149.297 111.688C148.812 110.125 148.57 108.43 148.57 106.602V106.062C148.57 104.234 148.812 102.539 149.297 100.977C149.797 99.3984 150.539 98.0312 151.523 96.875C152.523 95.7031 153.758 94.7969 155.227 94.1562C156.711 93.5 158.438 93.1719 160.406 93.1719C162.516 93.1719 164.375 93.5703 165.984 94.3672C167.609 95.1641 168.883 96.3203 169.805 97.8359C170.727 99.3516 171.18 101.188 171.164 103.344H163.734C163.75 102.578 163.633 101.891 163.383 101.281C163.133 100.672 162.742 100.188 162.211 99.8281C161.695 99.4531 161.031 99.2656 160.219 99.2656C159.406 99.2656 158.75 99.4453 158.25 99.8047C157.75 100.164 157.367 100.664 157.102 101.305C156.852 101.93 156.68 102.648 156.586 103.461C156.508 104.273 156.469 105.141 156.469 106.062V106.602C156.469 107.539 156.508 108.422 156.586 109.25C156.68 110.062 156.859 110.781 157.125 111.406C157.391 112.016 157.773 112.5 158.273 112.859C158.773 113.203 159.438 113.375 160.266 113.375ZM182.273 83V119H174.375V83H182.273ZM181.336 105.453L179.484 105.5C179.484 103.719 179.703 102.078 180.141 100.578C180.578 99.0781 181.203 97.7734 182.016 96.6641C182.828 95.5547 183.805 94.6953 184.945 94.0859C186.086 93.4766 187.352 93.1719 188.742 93.1719C189.992 93.1719 191.133 93.3516 192.164 93.7109C193.211 94.0703 194.109 94.6484 194.859 95.4453C195.625 96.2422 196.211 97.2812 196.617 98.5625C197.039 99.8438 197.25 101.406 197.25 103.25V119H189.305V103.203C189.305 102.172 189.156 101.375 188.859 100.812C188.578 100.234 188.172 99.8359 187.641 99.6172C187.109 99.3828 186.461 99.2656 185.695 99.2656C184.773 99.2656 184.023 99.4219 183.445 99.7344C182.867 100.047 182.422 100.484 182.109 101.047C181.812 101.594 181.609 102.242 181.5 102.992C181.391 103.742 181.336 104.562 181.336 105.453ZM231.539 109.93C231.539 109.398 231.461 108.922 231.305 108.5C231.148 108.062 230.859 107.656 230.438 107.281C230.016 106.906 229.406 106.531 228.609 106.156C227.828 105.766 226.797 105.359 225.516 104.938C224.016 104.438 222.57 103.875 221.18 103.25C219.789 102.609 218.547 101.867 217.453 101.023C216.359 100.164 215.492 99.1641 214.852 98.0234C214.211 96.8672 213.891 95.5234 213.891 93.9922C213.891 92.5234 214.219 91.2031 214.875 90.0312C215.531 88.8438 216.445 87.8359 217.617 87.0078C218.805 86.1641 220.195 85.5234 221.789 85.0859C223.383 84.6328 225.125 84.4062 227.016 84.4062C229.516 84.4062 231.719 84.8438 233.625 85.7188C235.547 86.5781 237.047 87.8047 238.125 89.3984C239.219 90.9766 239.766 92.8438 239.766 95H231.586C231.586 94.1406 231.406 93.3828 231.047 92.7266C230.703 92.0703 230.18 91.5547 229.477 91.1797C228.773 90.8047 227.891 90.6172 226.828 90.6172C225.797 90.6172 224.93 90.7734 224.227 91.0859C223.523 91.3984 222.992 91.8203 222.633 92.3516C222.273 92.8672 222.094 93.4375 222.094 94.0625C222.094 94.5781 222.234 95.0469 222.516 95.4688C222.812 95.875 223.227 96.2578 223.758 96.6172C224.305 96.9766 224.961 97.3203 225.727 97.6484C226.508 97.9766 227.383 98.2969 228.352 98.6094C230.164 99.1875 231.773 99.8359 233.18 100.555C234.602 101.258 235.797 102.062 236.766 102.969C237.75 103.859 238.492 104.875 238.992 106.016C239.508 107.156 239.766 108.445 239.766 109.883C239.766 111.414 239.469 112.773 238.875 113.961C238.281 115.148 237.43 116.156 236.32 116.984C235.211 117.797 233.883 118.414 232.336 118.836C230.789 119.258 229.062 119.469 227.156 119.469C225.406 119.469 223.68 119.25 221.977 118.812C220.289 118.359 218.758 117.672 217.383 116.75C216.008 115.812 214.906 114.617 214.078 113.164C213.266 111.695 212.859 109.953 212.859 107.938H221.109C221.109 108.938 221.242 109.781 221.508 110.469C221.773 111.156 222.164 111.711 222.68 112.133C223.195 112.539 223.828 112.836 224.578 113.023C225.328 113.195 226.188 113.281 227.156 113.281C228.203 113.281 229.047 113.133 229.688 112.836C230.328 112.523 230.797 112.117 231.094 111.617C231.391 111.102 231.539 110.539 231.539 109.93ZM256.992 93.6406V99.125H241.711V93.6406H256.992ZM244.922 87.3359H252.82V110.727C252.82 111.398 252.898 111.922 253.055 112.297C253.211 112.656 253.477 112.914 253.852 113.07C254.242 113.211 254.758 113.281 255.398 113.281C255.852 113.281 256.227 113.273 256.523 113.258C256.82 113.227 257.102 113.188 257.367 113.141V118.789C256.695 119.008 255.992 119.172 255.258 119.281C254.523 119.406 253.742 119.469 252.914 119.469C251.227 119.469 249.781 119.203 248.578 118.672C247.391 118.141 246.484 117.305 245.859 116.164C245.234 115.023 244.922 113.539 244.922 111.711V87.3359ZM273.305 112.625V102.172C273.305 101.453 273.203 100.836 273 100.32C272.797 99.8047 272.477 99.4062 272.039 99.125C271.602 98.8281 271.016 98.6797 270.281 98.6797C269.688 98.6797 269.18 98.7812 268.758 98.9844C268.336 99.1875 268.016 99.4922 267.797 99.8984C267.578 100.305 267.469 100.82 267.469 101.445H259.57C259.57 100.273 259.828 99.1875 260.344 98.1875C260.875 97.1719 261.625 96.2891 262.594 95.5391C263.578 94.7891 264.75 94.2109 266.109 93.8047C267.484 93.3828 269.016 93.1719 270.703 93.1719C272.719 93.1719 274.516 93.5078 276.094 94.1797C277.688 94.8516 278.945 95.8594 279.867 97.2031C280.789 98.5312 281.25 100.203 281.25 102.219V112.602C281.25 114.258 281.344 115.516 281.531 116.375C281.719 117.219 281.984 117.961 282.328 118.602V119H274.406C274.031 118.219 273.75 117.266 273.562 116.141C273.391 115 273.305 113.828 273.305 112.625ZM274.266 103.508L274.312 107.727H270.82C270.086 107.727 269.461 107.828 268.945 108.031C268.445 108.234 268.039 108.516 267.727 108.875C267.43 109.219 267.211 109.609 267.07 110.047C266.945 110.484 266.883 110.945 266.883 111.43C266.883 111.898 266.992 112.32 267.211 112.695C267.445 113.055 267.758 113.336 268.148 113.539C268.539 113.742 268.977 113.844 269.461 113.844C270.336 113.844 271.078 113.68 271.688 113.352C272.312 113.008 272.789 112.594 273.117 112.109C273.445 111.625 273.609 111.172 273.609 110.75L275.344 113.984C275.031 114.609 274.672 115.242 274.266 115.883C273.875 116.523 273.383 117.117 272.789 117.664C272.211 118.195 271.5 118.633 270.656 118.977C269.812 119.305 268.789 119.469 267.586 119.469C266.023 119.469 264.586 119.148 263.273 118.508C261.977 117.867 260.938 116.977 260.156 115.836C259.375 114.68 258.984 113.352 258.984 111.852C258.984 110.539 259.219 109.367 259.688 108.336C260.172 107.305 260.898 106.43 261.867 105.711C262.836 104.992 264.07 104.445 265.57 104.07C267.07 103.695 268.836 103.508 270.867 103.508H274.266ZM296.344 113.375C297.078 113.375 297.703 113.242 298.219 112.977C298.75 112.695 299.148 112.305 299.414 111.805C299.695 111.289 299.828 110.672 299.812 109.953H307.242C307.258 111.859 306.789 113.531 305.836 114.969C304.898 116.391 303.617 117.5 301.992 118.297C300.383 119.078 298.562 119.469 296.531 119.469C294.547 119.469 292.812 119.148 291.328 118.508C289.844 117.852 288.602 116.945 287.602 115.789C286.617 114.617 285.875 113.25 285.375 111.688C284.891 110.125 284.648 108.43 284.648 106.602V106.062C284.648 104.234 284.891 102.539 285.375 100.977C285.875 99.3984 286.617 98.0312 287.602 96.875C288.602 95.7031 289.836 94.7969 291.305 94.1562C292.789 93.5 294.516 93.1719 296.484 93.1719C298.594 93.1719 300.453 93.5703 302.062 94.3672C303.688 95.1641 304.961 96.3203 305.883 97.8359C306.805 99.3516 307.258 101.188 307.242 103.344H299.812C299.828 102.578 299.711 101.891 299.461 101.281C299.211 100.672 298.82 100.188 298.289 99.8281C297.773 99.4531 297.109 99.2656 296.297 99.2656C295.484 99.2656 294.828 99.4453 294.328 99.8047C293.828 100.164 293.445 100.664 293.18 101.305C292.93 101.93 292.758 102.648 292.664 103.461C292.586 104.273 292.547 105.141 292.547 106.062V106.602C292.547 107.539 292.586 108.422 292.664 109.25C292.758 110.062 292.938 110.781 293.203 111.406C293.469 112.016 293.852 112.5 294.352 112.859C294.852 113.203 295.516 113.375 296.344 113.375ZM318.586 82.9766V119H310.688V82.9766H318.586ZM334.805 93.6406L323.789 106.555L318.023 112.32L314.578 107.305L319.383 101.047L325.336 93.6406H334.805ZM326.344 119L319.57 107.445L325.406 103.297L335.391 119H326.344ZM350.156 111.875C350.156 111.438 350.008 111.062 349.711 110.75C349.43 110.422 348.93 110.125 348.211 109.859C347.492 109.578 346.484 109.297 345.188 109.016C343.953 108.75 342.789 108.398 341.695 107.961C340.617 107.523 339.672 106.992 338.859 106.367C338.047 105.742 337.406 105 336.938 104.141C336.484 103.281 336.258 102.297 336.258 101.188C336.258 100.109 336.484 99.0938 336.938 98.1406C337.406 97.1719 338.086 96.3203 338.977 95.5859C339.883 94.8359 340.984 94.25 342.281 93.8281C343.578 93.3906 345.055 93.1719 346.711 93.1719C348.992 93.1719 350.961 93.5234 352.617 94.2266C354.273 94.9141 355.547 95.8828 356.438 97.1328C357.344 98.3672 357.797 99.7969 357.797 101.422H349.898C349.898 100.781 349.789 100.234 349.57 99.7812C349.367 99.3281 349.031 98.9844 348.562 98.75C348.094 98.5 347.469 98.375 346.688 98.375C346.141 98.375 345.641 98.4766 345.188 98.6797C344.75 98.8828 344.398 99.1641 344.133 99.5234C343.867 99.8828 343.734 100.305 343.734 100.789C343.734 101.133 343.812 101.445 343.969 101.727C344.141 101.992 344.398 102.242 344.742 102.477C345.086 102.695 345.523 102.898 346.055 103.086C346.586 103.258 347.227 103.414 347.977 103.555C349.68 103.867 351.273 104.312 352.758 104.891C354.242 105.469 355.445 106.289 356.367 107.352C357.305 108.414 357.773 109.844 357.773 111.641C357.773 112.766 357.516 113.805 357 114.758C356.484 115.695 355.742 116.523 354.773 117.242C353.805 117.945 352.641 118.492 351.281 118.883C349.922 119.273 348.391 119.469 346.688 119.469C344.266 119.469 342.219 119.039 340.547 118.18C338.875 117.305 337.609 116.211 336.75 114.898C335.906 113.57 335.484 112.227 335.484 110.867H342.844C342.875 111.648 343.062 112.289 343.406 112.789C343.766 113.289 344.242 113.656 344.836 113.891C345.43 114.125 346.117 114.242 346.898 114.242C347.617 114.242 348.211 114.141 348.68 113.938C349.164 113.734 349.531 113.461 349.781 113.117C350.031 112.758 350.156 112.344 350.156 111.875Z" fill="black"/>
<path d="M1134 0H1348C1356.28 0 1363 6.71573 1363 15V148C1363 156.284 1356.28 163 1348 163H1134V0Z" fill="#8ABCD7"/>
<path fill-rule="evenodd" clip-rule="evenodd" d="M1219.98 53C1219.85 53 1219.73 53.0527 1219.64 53.1464C1219.55 53.2402 1219.5 53.3674 1219.5 53.5V109.5C1219.5 109.633 1219.55 109.76 1219.64 109.854C1219.73 109.947 1219.85 110 1219.98 110H1277.02C1277.15 110 1277.27 109.947 1277.36 109.854C1277.45 109.76 1277.5 109.633 1277.5 109.5V64C1277.5 63.8674 1277.45 63.7402 1277.36 63.6464C1277.27 63.5527 1277.15 63.5 1277.02 63.5H1248.5C1247.65 63.5 1246.84 63.1045 1246.29 62.4206L1238.77 53H1219.98ZM1215.58 48.9038C1216.74 47.6848 1218.33 47 1219.98 47H1240.11C1240.97 47 1241.77 47.3955 1242.32 48.0794L1249.85 57.5H1277.02C1278.67 57.5 1280.26 58.1848 1281.42 59.4038C1282.59 60.6228 1283.25 62.2761 1283.25 64V109.5C1283.25 111.224 1282.59 112.877 1281.42 114.096C1280.26 115.315 1278.67 116 1277.02 116H1219.98C1218.33 116 1216.74 115.315 1215.58 114.096C1214.41 112.877 1213.75 111.224 1213.75 109.5V53.5C1213.75 51.7761 1214.41 50.1228 1215.58 48.9038Z" fill="white"/>
<path fill-rule="evenodd" clip-rule="evenodd" d="M1244.16 75.5251C1245.47 76.892 1245.47 79.108 1244.16 80.4749L1238.15 86.75L1244.16 93.0251C1245.47 94.392 1245.47 96.608 1244.16 97.9749C1242.85 99.3417 1240.73 99.3417 1239.42 97.9749L1231.03 89.2249C1229.72 87.858 1229.72 85.642 1231.03 84.2751L1239.42 75.5251C1240.73 74.1583 1242.85 74.1583 1244.16 75.5251Z" fill="white"/>
<path fill-rule="evenodd" clip-rule="evenodd" d="M1252.12 97.9749C1250.81 96.608 1250.81 94.392 1252.12 93.0251L1258.13 86.75L1252.12 80.4749C1250.81 79.108 1250.81 76.892 1252.12 75.5251C1253.43 74.1583 1255.55 74.1583 1256.86 75.5251L1265.25 84.2751C1266.56 85.642 1266.56 87.858 1265.25 89.2249L1256.86 97.9749C1255.55 99.3417 1253.43 99.3417 1252.12 97.9749Z" fill="white"/>
</svg>
