<svg width="1363" height="163" viewBox="0 0 1363 163" fill="none" xmlns="http://www.w3.org/2000/svg">
<path d="M0 15C0 6.71573 6.71573 0 15 0H37V163H15C6.71573 163 0 156.284 0 148V15Z" fill="#424242"/>
<rect width="1097" height="163" transform="translate(37)" fill="#F0F0F0"/>
<path d="M96.1289 43.9375H99.1055L103.488 56.4648L107.871 43.9375H110.848L104.684 61H102.293L96.1289 43.9375ZM94.5234 43.9375H97.4883L98.0273 56.1484V61H94.5234V43.9375ZM109.488 43.9375H112.465V61H108.949V56.1484L109.488 43.9375ZM121.172 61.2344C120.188 61.2344 119.305 61.0781 118.523 60.7656C117.742 60.4453 117.078 60.0039 116.531 59.4414C115.992 58.8789 115.578 58.2266 115.289 57.4844C115 56.7344 114.855 55.9375 114.855 55.0938V54.625C114.855 53.6641 114.992 52.7852 115.266 51.9883C115.539 51.1914 115.93 50.5 116.438 49.9141C116.953 49.3281 117.578 48.8789 118.312 48.5664C119.047 48.2461 119.875 48.0859 120.797 48.0859C121.695 48.0859 122.492 48.2344 123.188 48.5312C123.883 48.8281 124.465 49.25 124.934 49.7969C125.41 50.3438 125.77 51 126.012 51.7656C126.254 52.5234 126.375 53.3672 126.375 54.2969V55.7031H116.297V53.4531H123.059V53.1953C123.059 52.7266 122.973 52.3086 122.801 51.9414C122.637 51.5664 122.387 51.2695 122.051 51.0508C121.715 50.832 121.285 50.7227 120.762 50.7227C120.316 50.7227 119.934 50.8203 119.613 51.0156C119.293 51.2109 119.031 51.4844 118.828 51.8359C118.633 52.1875 118.484 52.6016 118.383 53.0781C118.289 53.5469 118.242 54.0625 118.242 54.625V55.0938C118.242 55.6016 118.312 56.0703 118.453 56.5C118.602 56.9297 118.809 57.3008 119.074 57.6133C119.348 57.9258 119.676 58.168 120.059 58.3398C120.449 58.5117 120.891 58.5977 121.383 58.5977C121.992 58.5977 122.559 58.4805 123.082 58.2461C123.613 58.0039 124.07 57.6406 124.453 57.1562L126.094 58.9375C125.828 59.3203 125.465 59.6875 125.004 60.0391C124.551 60.3906 124.004 60.6797 123.363 60.9062C122.723 61.125 121.992 61.2344 121.172 61.2344ZM135.785 58.2344V43H139.184V61H136.125L135.785 58.2344ZM127.77 54.8125V54.5664C127.77 53.5977 127.879 52.7188 128.098 51.9297C128.316 51.1328 128.637 50.4492 129.059 49.8789C129.48 49.3086 130 48.8672 130.617 48.5547C131.234 48.2422 131.938 48.0859 132.727 48.0859C133.469 48.0859 134.117 48.2422 134.672 48.5547C135.234 48.8672 135.711 49.3125 136.102 49.8906C136.5 50.4609 136.82 51.1367 137.062 51.918C137.305 52.6914 137.48 53.5391 137.59 54.4609V55C137.48 55.8828 137.305 56.7031 137.062 57.4609C136.82 58.2188 136.5 58.8828 136.102 59.4531C135.711 60.0156 135.234 60.4531 134.672 60.7656C134.109 61.0781 133.453 61.2344 132.703 61.2344C131.914 61.2344 131.211 61.0742 130.594 60.7539C129.984 60.4336 129.469 59.9844 129.047 59.4062C128.633 58.8281 128.316 58.1484 128.098 57.3672C127.879 56.5859 127.77 55.7344 127.77 54.8125ZM131.145 54.5664V54.8125C131.145 55.3359 131.184 55.8242 131.262 56.2773C131.348 56.7305 131.484 57.1328 131.672 57.4844C131.867 57.8281 132.117 58.0977 132.422 58.293C132.734 58.4805 133.113 58.5742 133.559 58.5742C134.137 58.5742 134.613 58.4453 134.988 58.1875C135.363 57.9219 135.648 57.5586 135.844 57.0977C136.047 56.6367 136.164 56.1055 136.195 55.5039V53.9688C136.172 53.4766 136.102 53.0352 135.984 52.6445C135.875 52.2461 135.711 51.9062 135.492 51.625C135.281 51.3438 135.016 51.125 134.695 50.9688C134.383 50.8125 134.012 50.7344 133.582 50.7344C133.145 50.7344 132.77 50.8359 132.457 51.0391C132.145 51.2344 131.891 51.5039 131.695 51.8477C131.508 52.1914 131.367 52.5977 131.273 53.0664C131.188 53.5273 131.145 54.0273 131.145 54.5664ZM145.383 48.3203V61H141.996V48.3203H145.383ZM141.785 45.0156C141.785 44.5234 141.957 44.1172 142.301 43.7969C142.645 43.4766 143.105 43.3164 143.684 43.3164C144.254 43.3164 144.711 43.4766 145.055 43.7969C145.406 44.1172 145.582 44.5234 145.582 45.0156C145.582 45.5078 145.406 45.9141 145.055 46.2344C144.711 46.5547 144.254 46.7148 143.684 46.7148C143.105 46.7148 142.645 46.5547 142.301 46.2344C141.957 45.9141 141.785 45.5078 141.785 45.0156ZM153.41 58.5977C153.824 58.5977 154.191 58.5195 154.512 58.3633C154.832 58.1992 155.082 57.9727 155.262 57.6836C155.449 57.3867 155.547 57.0391 155.555 56.6406H158.73C158.723 57.5312 158.484 58.3242 158.016 59.0195C157.547 59.707 156.918 60.25 156.129 60.6484C155.34 61.0391 154.457 61.2344 153.48 61.2344C152.496 61.2344 151.637 61.0703 150.902 60.7422C150.176 60.4141 149.57 59.9609 149.086 59.3828C148.602 58.7969 148.238 58.1172 147.996 57.3438C147.754 56.5625 147.633 55.7266 147.633 54.8359V54.4961C147.633 53.5977 147.754 52.7617 147.996 51.9883C148.238 51.207 148.602 50.5273 149.086 49.9492C149.57 49.3633 150.176 48.9062 150.902 48.5781C151.629 48.25 152.48 48.0859 153.457 48.0859C154.496 48.0859 155.406 48.2852 156.188 48.6836C156.977 49.082 157.594 49.6523 158.039 50.3945C158.492 51.1289 158.723 52 158.73 53.0078H155.555C155.547 52.5859 155.457 52.2031 155.285 51.8594C155.121 51.5156 154.879 51.2422 154.559 51.0391C154.246 50.8281 153.859 50.7227 153.398 50.7227C152.906 50.7227 152.504 50.8281 152.191 51.0391C151.879 51.2422 151.637 51.5234 151.465 51.8828C151.293 52.2344 151.172 52.6367 151.102 53.0898C151.039 53.5352 151.008 54.0039 151.008 54.4961V54.8359C151.008 55.3281 151.039 55.8008 151.102 56.2539C151.164 56.707 151.281 57.1094 151.453 57.4609C151.633 57.8125 151.879 58.0898 152.191 58.293C152.504 58.4961 152.91 58.5977 153.41 58.5977ZM167.531 58.1406V52.4922C167.531 52.0859 167.465 51.7383 167.332 51.4492C167.199 51.1523 166.992 50.9219 166.711 50.7578C166.438 50.5938 166.082 50.5117 165.645 50.5117C165.27 50.5117 164.945 50.5781 164.672 50.7109C164.398 50.8359 164.188 51.0195 164.039 51.2617C163.891 51.4961 163.816 51.7734 163.816 52.0938H160.441C160.441 51.5547 160.566 51.043 160.816 50.5586C161.066 50.0742 161.43 49.6484 161.906 49.2812C162.383 48.9062 162.949 48.6133 163.605 48.4023C164.27 48.1914 165.012 48.0859 165.832 48.0859C166.816 48.0859 167.691 48.25 168.457 48.5781C169.223 48.9062 169.824 49.3984 170.262 50.0547C170.707 50.7109 170.93 51.5312 170.93 52.5156V57.9414C170.93 58.6367 170.973 59.207 171.059 59.6523C171.145 60.0898 171.27 60.4727 171.434 60.8008V61H168.023C167.859 60.6562 167.734 60.2266 167.648 59.7109C167.57 59.1875 167.531 58.6641 167.531 58.1406ZM167.977 53.2773L168 55.1875H166.113C165.668 55.1875 165.281 55.2383 164.953 55.3398C164.625 55.4414 164.355 55.5859 164.145 55.7734C163.934 55.9531 163.777 56.1641 163.676 56.4062C163.582 56.6484 163.535 56.9141 163.535 57.2031C163.535 57.4922 163.602 57.7539 163.734 57.9883C163.867 58.2148 164.059 58.3945 164.309 58.5273C164.559 58.6523 164.852 58.7148 165.188 58.7148C165.695 58.7148 166.137 58.6133 166.512 58.4102C166.887 58.207 167.176 57.957 167.379 57.6602C167.59 57.3633 167.699 57.082 167.707 56.8164L168.598 58.2461C168.473 58.5664 168.301 58.8984 168.082 59.2422C167.871 59.5859 167.602 59.9102 167.273 60.2148C166.945 60.5117 166.551 60.7578 166.09 60.9531C165.629 61.1406 165.082 61.2344 164.449 61.2344C163.645 61.2344 162.914 61.0742 162.258 60.7539C161.609 60.4258 161.094 59.9766 160.711 59.4062C160.336 58.8281 160.148 58.1719 160.148 57.4375C160.148 56.7734 160.273 56.1836 160.523 55.668C160.773 55.1523 161.141 54.7188 161.625 54.3672C162.117 54.0078 162.73 53.7383 163.465 53.5586C164.199 53.3711 165.051 53.2773 166.02 53.2773H167.977ZM176.906 51.0859V61H173.531V48.3203H176.707L176.906 51.0859ZM180.727 48.2383L180.668 51.3672C180.504 51.3438 180.305 51.3242 180.07 51.3086C179.844 51.2852 179.637 51.2734 179.449 51.2734C178.973 51.2734 178.559 51.3359 178.207 51.4609C177.863 51.5781 177.574 51.7539 177.34 51.9883C177.113 52.2227 176.941 52.5078 176.824 52.8438C176.715 53.1797 176.652 53.5625 176.637 53.9922L175.957 53.7812C175.957 52.9609 176.039 52.207 176.203 51.5195C176.367 50.8242 176.605 50.2188 176.918 49.7031C177.238 49.1875 177.629 48.7891 178.09 48.5078C178.551 48.2266 179.078 48.0859 179.672 48.0859C179.859 48.0859 180.051 48.1016 180.246 48.1328C180.441 48.1562 180.602 48.1914 180.727 48.2383ZM187.922 61.2344C186.938 61.2344 186.055 61.0781 185.273 60.7656C184.492 60.4453 183.828 60.0039 183.281 59.4414C182.742 58.8789 182.328 58.2266 182.039 57.4844C181.75 56.7344 181.605 55.9375 181.605 55.0938V54.625C181.605 53.6641 181.742 52.7852 182.016 51.9883C182.289 51.1914 182.68 50.5 183.188 49.9141C183.703 49.3281 184.328 48.8789 185.062 48.5664C185.797 48.2461 186.625 48.0859 187.547 48.0859C188.445 48.0859 189.242 48.2344 189.938 48.5312C190.633 48.8281 191.215 49.25 191.684 49.7969C192.16 50.3438 192.52 51 192.762 51.7656C193.004 52.5234 193.125 53.3672 193.125 54.2969V55.7031H183.047V53.4531H189.809V53.1953C189.809 52.7266 189.723 52.3086 189.551 51.9414C189.387 51.5664 189.137 51.2695 188.801 51.0508C188.465 50.832 188.035 50.7227 187.512 50.7227C187.066 50.7227 186.684 50.8203 186.363 51.0156C186.043 51.2109 185.781 51.4844 185.578 51.8359C185.383 52.1875 185.234 52.6016 185.133 53.0781C185.039 53.5469 184.992 54.0625 184.992 54.625V55.0938C184.992 55.6016 185.062 56.0703 185.203 56.5C185.352 56.9297 185.559 57.3008 185.824 57.6133C186.098 57.9258 186.426 58.168 186.809 58.3398C187.199 58.5117 187.641 58.5977 188.133 58.5977C188.742 58.5977 189.309 58.4805 189.832 58.2461C190.363 58.0039 190.82 57.6406 191.203 57.1562L192.844 58.9375C192.578 59.3203 192.215 59.6875 191.754 60.0391C191.301 60.3906 190.754 60.6797 190.113 60.9062C189.473 61.125 188.742 61.2344 187.922 61.2344Z" fill="#888888"/>
<path d="M110.062 92.0469L101.742 119H92.9062L105.445 84.875H111.047L110.062 92.0469ZM116.953 119L108.609 92.0469L107.531 84.875H113.203L125.812 119H116.953ZM116.625 106.273V112.625H99.1172V106.273H116.625ZM135.258 115.906L142.055 84.875H146.109L148.312 87.5234L141.07 119H136.594L135.258 115.906ZM133.453 84.875L139.195 116.141L137.719 119H132.539L125.297 84.875H133.453ZM152.039 115.977L157.734 84.875H165.867L158.625 119H153.469L152.039 115.977ZM149.039 84.875L156 116.094L154.594 119H150.117L142.711 87.4766L145.008 84.875H149.039ZM186.68 109.93C186.68 109.398 186.602 108.922 186.445 108.5C186.289 108.062 186 107.656 185.578 107.281C185.156 106.906 184.547 106.531 183.75 106.156C182.969 105.766 181.938 105.359 180.656 104.938C179.156 104.438 177.711 103.875 176.32 103.25C174.93 102.609 173.688 101.867 172.594 101.023C171.5 100.164 170.633 99.1641 169.992 98.0234C169.352 96.8672 169.031 95.5234 169.031 93.9922C169.031 92.5234 169.359 91.2031 170.016 90.0312C170.672 88.8438 171.586 87.8359 172.758 87.0078C173.945 86.1641 175.336 85.5234 176.93 85.0859C178.523 84.6328 180.266 84.4062 182.156 84.4062C184.656 84.4062 186.859 84.8438 188.766 85.7188C190.688 86.5781 192.188 87.8047 193.266 89.3984C194.359 90.9766 194.906 92.8438 194.906 95H186.727C186.727 94.1406 186.547 93.3828 186.188 92.7266C185.844 92.0703 185.32 91.5547 184.617 91.1797C183.914 90.8047 183.031 90.6172 181.969 90.6172C180.938 90.6172 180.07 90.7734 179.367 91.0859C178.664 91.3984 178.133 91.8203 177.773 92.3516C177.414 92.8672 177.234 93.4375 177.234 94.0625C177.234 94.5781 177.375 95.0469 177.656 95.4688C177.953 95.875 178.367 96.2578 178.898 96.6172C179.445 96.9766 180.102 97.3203 180.867 97.6484C181.648 97.9766 182.523 98.2969 183.492 98.6094C185.305 99.1875 186.914 99.8359 188.32 100.555C189.742 101.258 190.938 102.062 191.906 102.969C192.891 103.859 193.633 104.875 194.133 106.016C194.648 107.156 194.906 108.445 194.906 109.883C194.906 111.414 194.609 112.773 194.016 113.961C193.422 115.148 192.57 116.156 191.461 116.984C190.352 117.797 189.023 118.414 187.477 118.836C185.93 119.258 184.203 119.469 182.297 119.469C180.547 119.469 178.82 119.25 177.117 118.812C175.43 118.359 173.898 117.672 172.523 116.75C171.148 115.812 170.047 114.617 169.219 113.164C168.406 111.695 168 109.953 168 107.938H176.25C176.25 108.938 176.383 109.781 176.648 110.469C176.914 111.156 177.305 111.711 177.82 112.133C178.336 112.539 178.969 112.836 179.719 113.023C180.469 113.195 181.328 113.281 182.297 113.281C183.344 113.281 184.188 113.133 184.828 112.836C185.469 112.523 185.938 112.117 186.234 111.617C186.531 111.102 186.68 110.539 186.68 109.93ZM222.188 119H214.617L214.664 112.672H222.188C223.75 112.672 225.07 112.297 226.148 111.547C227.242 110.797 228.07 109.68 228.633 108.195C229.211 106.695 229.5 104.852 229.5 102.664V101.188C229.5 99.5469 229.336 98.1094 229.008 96.875C228.695 95.625 228.227 94.5859 227.602 93.7578C226.977 92.9141 226.195 92.2812 225.258 91.8594C224.336 91.4375 223.273 91.2266 222.07 91.2266H214.477V84.875H222.07C224.383 84.875 226.5 85.2734 228.422 86.0703C230.359 86.8516 232.031 87.9766 233.438 89.4453C234.859 90.8984 235.953 92.625 236.719 94.625C237.5 96.6094 237.891 98.8125 237.891 101.234V102.664C237.891 105.07 237.5 107.273 236.719 109.273C235.953 111.273 234.867 113 233.461 114.453C232.055 115.906 230.391 117.031 228.469 117.828C226.562 118.609 224.469 119 222.188 119ZM219.328 84.875V119H211.102V84.875H219.328ZM254.086 119.469C252.023 119.469 250.18 119.148 248.555 118.508C246.93 117.852 245.555 116.953 244.43 115.812C243.32 114.672 242.469 113.359 241.875 111.875C241.297 110.391 241.008 108.82 241.008 107.164V106.273C241.008 104.414 241.266 102.695 241.781 101.117C242.297 99.5234 243.062 98.1328 244.078 96.9453C245.094 95.7578 246.367 94.8359 247.898 94.1797C249.43 93.5078 251.211 93.1719 253.242 93.1719C255.039 93.1719 256.648 93.4609 258.07 94.0391C259.492 94.6172 260.695 95.4453 261.68 96.5234C262.68 97.6016 263.438 98.9062 263.953 100.438C264.484 101.969 264.75 103.688 264.75 105.594V108.805H244.031V103.859H257.039V103.25C257.055 102.406 256.906 101.688 256.594 101.094C256.297 100.5 255.859 100.047 255.281 99.7344C254.703 99.4219 254 99.2656 253.172 99.2656C252.312 99.2656 251.602 99.4531 251.039 99.8281C250.492 100.203 250.062 100.719 249.75 101.375C249.453 102.016 249.242 102.758 249.117 103.602C248.992 104.445 248.93 105.336 248.93 106.273V107.164C248.93 108.102 249.055 108.953 249.305 109.719C249.57 110.484 249.945 111.141 250.43 111.688C250.93 112.219 251.523 112.633 252.211 112.93C252.914 113.227 253.711 113.375 254.602 113.375C255.68 113.375 256.742 113.172 257.789 112.766C258.836 112.359 259.734 111.688 260.484 110.75L264.07 115.016C263.555 115.75 262.82 116.461 261.867 117.148C260.93 117.836 259.805 118.398 258.492 118.836C257.18 119.258 255.711 119.469 254.086 119.469ZM275.93 98.5156V128.75H268.031V93.6406H275.391L275.93 98.5156ZM291.492 106.016V106.508C291.492 108.352 291.281 110.062 290.859 111.641C290.438 113.219 289.812 114.594 288.984 115.766C288.156 116.938 287.125 117.852 285.891 118.508C284.672 119.148 283.258 119.469 281.648 119.469C280.133 119.469 278.828 119.133 277.734 118.461C276.641 117.789 275.727 116.859 274.992 115.672C274.258 114.484 273.664 113.125 273.211 111.594C272.758 110.062 272.398 108.445 272.133 106.742V106.109C272.398 104.281 272.758 102.586 273.211 101.023C273.664 99.4453 274.258 98.0703 274.992 96.8984C275.727 95.7266 276.633 94.8125 277.711 94.1562C278.805 93.5 280.109 93.1719 281.625 93.1719C283.234 93.1719 284.648 93.4766 285.867 94.0859C287.102 94.6953 288.133 95.5703 288.961 96.7109C289.805 97.8359 290.438 99.1875 290.859 100.766C291.281 102.344 291.492 104.094 291.492 106.016ZM283.594 106.508V106.016C283.594 105.031 283.523 104.133 283.383 103.32C283.242 102.492 283.016 101.773 282.703 101.164C282.406 100.555 282.008 100.086 281.508 99.7578C281.008 99.4297 280.391 99.2656 279.656 99.2656C278.812 99.2656 278.102 99.3984 277.523 99.6641C276.961 99.9141 276.508 100.305 276.164 100.836C275.836 101.352 275.602 102 275.461 102.781C275.336 103.547 275.281 104.445 275.297 105.477V107.398C275.266 108.586 275.383 109.633 275.648 110.539C275.914 111.43 276.375 112.125 277.031 112.625C277.688 113.125 278.578 113.375 279.703 113.375C280.453 113.375 281.078 113.203 281.578 112.859C282.078 112.5 282.477 112.008 282.773 111.383C283.07 110.742 283.281 110.008 283.406 109.18C283.531 108.352 283.594 107.461 283.594 106.508ZM303.352 83V119H295.43V83H303.352ZM307.242 106.578V106.086C307.242 104.227 307.508 102.516 308.039 100.953C308.57 99.375 309.352 98.0078 310.383 96.8516C311.414 95.6953 312.688 94.7969 314.203 94.1562C315.719 93.5 317.469 93.1719 319.453 93.1719C321.453 93.1719 323.211 93.5 324.727 94.1562C326.258 94.7969 327.539 95.6953 328.57 96.8516C329.602 98.0078 330.383 99.375 330.914 100.953C331.445 102.516 331.711 104.227 331.711 106.086V106.578C331.711 108.422 331.445 110.133 330.914 111.711C330.383 113.273 329.602 114.641 328.57 115.812C327.539 116.969 326.266 117.867 324.75 118.508C323.234 119.148 321.484 119.469 319.5 119.469C317.516 119.469 315.758 119.148 314.227 118.508C312.695 117.867 311.414 116.969 310.383 115.812C309.352 114.641 308.57 113.273 308.039 111.711C307.508 110.133 307.242 108.422 307.242 106.578ZM315.141 106.086V106.578C315.141 107.531 315.211 108.422 315.352 109.25C315.492 110.078 315.727 110.805 316.055 111.43C316.383 112.039 316.828 112.516 317.391 112.859C317.953 113.203 318.656 113.375 319.5 113.375C320.328 113.375 321.016 113.203 321.562 112.859C322.125 112.516 322.57 112.039 322.898 111.43C323.227 110.805 323.461 110.078 323.602 109.25C323.742 108.422 323.812 107.531 323.812 106.578V106.086C323.812 105.164 323.742 104.297 323.602 103.484C323.461 102.656 323.227 101.93 322.898 101.305C322.57 100.664 322.125 100.164 321.562 99.8047C321 99.4453 320.297 99.2656 319.453 99.2656C318.625 99.2656 317.93 99.4453 317.367 99.8047C316.82 100.164 316.383 100.664 316.055 101.305C315.727 101.93 315.492 102.656 315.352 103.484C315.211 104.297 315.141 105.164 315.141 106.086ZM342.633 116.023L349.195 93.6406H357.68L347.484 122.773C347.266 123.414 346.977 124.102 346.617 124.836C346.258 125.586 345.766 126.297 345.141 126.969C344.516 127.641 343.711 128.188 342.727 128.609C341.758 129.031 340.555 129.242 339.117 129.242C338.352 129.242 337.789 129.203 337.43 129.125C337.086 129.062 336.555 128.945 335.836 128.773V123.125C336.039 123.125 336.211 123.125 336.352 123.125C336.508 123.125 336.68 123.125 336.867 123.125C337.711 123.125 338.383 123.039 338.883 122.867C339.398 122.695 339.789 122.445 340.055 122.117C340.336 121.789 340.555 121.391 340.711 120.922L342.633 116.023ZM340.969 93.6406L345.961 111.383L346.828 119.75H341.531L332.508 93.6406H340.969ZM367.711 99.0078V119H359.812V93.6406H367.219L367.711 99.0078ZM366.75 105.453L364.945 105.5C364.945 103.719 365.156 102.078 365.578 100.578C366 99.0781 366.625 97.7734 367.453 96.6641C368.281 95.5547 369.297 94.6953 370.5 94.0859C371.719 93.4766 373.125 93.1719 374.719 93.1719C375.828 93.1719 376.836 93.3438 377.742 93.6875C378.648 94.0156 379.43 94.5391 380.086 95.2578C380.742 95.9609 381.242 96.8828 381.586 98.0234C381.945 99.1484 382.125 100.5 382.125 102.078V119H374.227V103.086C374.227 102.008 374.102 101.195 373.852 100.648C373.617 100.102 373.273 99.7344 372.82 99.5469C372.367 99.3594 371.812 99.2656 371.156 99.2656C370.469 99.2656 369.852 99.4219 369.305 99.7344C368.758 100.047 368.289 100.484 367.898 101.047C367.523 101.594 367.234 102.242 367.031 102.992C366.844 103.742 366.75 104.562 366.75 105.453ZM381.234 105.453L379.031 105.5C379.031 103.719 379.227 102.078 379.617 100.578C380.023 99.0781 380.625 97.7734 381.422 96.6641C382.234 95.5547 383.242 94.6953 384.445 94.0859C385.648 93.4766 387.047 93.1719 388.641 93.1719C389.797 93.1719 390.859 93.3438 391.828 93.6875C392.797 94.0312 393.633 94.5859 394.336 95.3516C395.039 96.1172 395.586 97.1328 395.977 98.3984C396.367 99.6484 396.562 101.195 396.562 103.039V119H388.641V103.039C388.641 101.992 388.516 101.203 388.266 100.672C388.031 100.125 387.688 99.7578 387.234 99.5703C386.781 99.3672 386.242 99.2656 385.617 99.2656C384.867 99.2656 384.219 99.4219 383.672 99.7344C383.125 100.047 382.664 100.484 382.289 101.047C381.93 101.594 381.664 102.242 381.492 102.992C381.32 103.742 381.234 104.562 381.234 105.453ZM413.367 119.469C411.305 119.469 409.461 119.148 407.836 118.508C406.211 117.852 404.836 116.953 403.711 115.812C402.602 114.672 401.75 113.359 401.156 111.875C400.578 110.391 400.289 108.82 400.289 107.164V106.273C400.289 104.414 400.547 102.695 401.062 101.117C401.578 99.5234 402.344 98.1328 403.359 96.9453C404.375 95.7578 405.648 94.8359 407.18 94.1797C408.711 93.5078 410.492 93.1719 412.523 93.1719C414.32 93.1719 415.93 93.4609 417.352 94.0391C418.773 94.6172 419.977 95.4453 420.961 96.5234C421.961 97.6016 422.719 98.9062 423.234 100.438C423.766 101.969 424.031 103.688 424.031 105.594V108.805H403.312V103.859H416.32V103.25C416.336 102.406 416.188 101.688 415.875 101.094C415.578 100.5 415.141 100.047 414.562 99.7344C413.984 99.4219 413.281 99.2656 412.453 99.2656C411.594 99.2656 410.883 99.4531 410.32 99.8281C409.773 100.203 409.344 100.719 409.031 101.375C408.734 102.016 408.523 102.758 408.398 103.602C408.273 104.445 408.211 105.336 408.211 106.273V107.164C408.211 108.102 408.336 108.953 408.586 109.719C408.852 110.484 409.227 111.141 409.711 111.688C410.211 112.219 410.805 112.633 411.492 112.93C412.195 113.227 412.992 113.375 413.883 113.375C414.961 113.375 416.023 113.172 417.07 112.766C418.117 112.359 419.016 111.688 419.766 110.75L423.352 115.016C422.836 115.75 422.102 116.461 421.148 117.148C420.211 117.836 419.086 118.398 417.773 118.836C416.461 119.258 414.992 119.469 413.367 119.469ZM435 99.0547V119H427.102V93.6406H434.508L435 99.0547ZM434.062 105.453L432.211 105.5C432.211 103.562 432.445 101.836 432.914 100.32C433.383 98.7891 434.047 97.4922 434.906 96.4297C435.766 95.3672 436.789 94.5625 437.977 94.0156C439.18 93.4531 440.516 93.1719 441.984 93.1719C443.156 93.1719 444.227 93.3438 445.195 93.6875C446.18 94.0312 447.023 94.5859 447.727 95.3516C448.445 96.1172 448.992 97.1328 449.367 98.3984C449.758 99.6484 449.953 101.195 449.953 103.039V119H442.008V103.016C442.008 102 441.867 101.227 441.586 100.695C441.305 100.148 440.898 99.7734 440.367 99.5703C439.836 99.3672 439.188 99.2656 438.422 99.2656C437.609 99.2656 436.922 99.4219 436.359 99.7344C435.797 100.047 435.344 100.484 435 101.047C434.672 101.594 434.43 102.242 434.273 102.992C434.133 103.742 434.062 104.562 434.062 105.453ZM467.695 93.6406V99.125H452.414V93.6406H467.695ZM455.625 87.3359H463.523V110.727C463.523 111.398 463.602 111.922 463.758 112.297C463.914 112.656 464.18 112.914 464.555 113.07C464.945 113.211 465.461 113.281 466.102 113.281C466.555 113.281 466.93 113.273 467.227 113.258C467.523 113.227 467.805 113.188 468.07 113.141V118.789C467.398 119.008 466.695 119.172 465.961 119.281C465.227 119.406 464.445 119.469 463.617 119.469C461.93 119.469 460.484 119.203 459.281 118.672C458.094 118.141 457.188 117.305 456.562 116.164C455.938 115.023 455.625 113.539 455.625 111.711V87.3359Z" fill="black"/>
<path d="M1134 0H1348C1356.28 0 1363 6.71573 1363 15V148C1363 156.284 1356.28 163 1348 163H1134V0Z" fill="#8ABCD7"/>
<path d="M1212.5 117.5L1212.5 45.5L1284.5 45.5L1284.5 117.5L1212.5 117.5Z" fill="white" fill-opacity="0.01"/>
<path d="M1221.5 81.5125L1221.5 108.5L1275.5 108.5L1275.5 81.5" stroke="white" stroke-width="7.24" stroke-linecap="round" stroke-linejoin="round"/>
<path d="M1262 68L1248.5 54.5L1235 68" stroke="white" stroke-width="7.24" stroke-linecap="round" stroke-linejoin="round"/>
<path d="M1248.49 93.5L1248.49 54.5" stroke="white" stroke-width="7.24" stroke-linecap="round" stroke-linejoin="round"/>
</svg>
